<?xml version="1.0" standalone="no"?>
<!DOCTYPE svg PUBLIC "-//W3C//DTD SVG 1.1//EN" "http://www.w3.org/Graphics/SVG/1.1/DTD/svg11.dtd" >
<svg xmlns="http://www.w3.org/2000/svg" xmlns:xlink="http://www.w3.org/1999/xlink" version="1.1">
<metadata></metadata>
<defs>
<font id="freightsans_lightitalicRg" horiz-adv-x="1417" >
<font-face units-per-em="2048" ascent="1638" descent="-410" />
<missing-glyph horiz-adv-x="253" />
<glyph horiz-adv-x="0" />
<glyph unicode="&#xd;" horiz-adv-x="253" />
<glyph unicode=" "  horiz-adv-x="253" />
<glyph unicode="&#x09;" horiz-adv-x="253" />
<glyph unicode="&#xa0;" horiz-adv-x="253" />
<glyph unicode="!" horiz-adv-x="497" d="M100 57q0 29 19.5 51.5t52.5 22.5t53.5 -22.5t20.5 -51.5q0 -31 -20.5 -54t-53.5 -23t-52.5 23.5t-19.5 53.5zM209 365l158 964l102 -10l-213 -959z" />
<glyph unicode="&#x22;" horiz-adv-x="618" d="M59 815l385 512l88 -45l-399 -467h-74zM360 815l385 512l89 -45l-400 -467h-74z" />
<glyph unicode="#" horiz-adv-x="1159" d="M-25 -152l234 504h-182l2 70h211l7 14q7 15 18 39.5t26.5 56t30.5 64.5q37 78 79 174h-251l2 70h282l219 475h76l-221 -475h377l219 475h76l-219 -475h180l-2 -70h-211l-162 -348h252l-2 -70h-283l-231 -504h-76l233 504h-378l-232 -504h-74zM313 422h377l8 14 q7 15 18 39.5t26.5 56t29.5 64.5q37 78 80 174h-377z" />
<glyph unicode="$" horiz-adv-x="974" d="M23 121l28 80q53 -43 117.5 -77t136.5 -52l9 24q8 25 21 64t29.5 89t32.5 101q39 123 92 279q-55 27 -108 57.5t-95 69.5t-67.5 89t-25.5 116q0 84 33.5 147t91 106t131 64.5t153.5 21.5q29 0 56.5 -3t56.5 -7l67 205h74l-74 -221q123 -37 205 -105l-29 -79 q-84 70 -200 108l-174 -522q57 -29 108 -60.5t89 -71.5t60.5 -91.5t22.5 -116.5q0 -84 -33.5 -149.5t-90 -111.5t-132.5 -70.5t-162 -24.5q-47 0 -96 6l-78 -238h-73l84 252q-76 16 -141.5 48t-118.5 73zM279 967q0 -49 20 -87t54 -69t78 -56.5t91 -49.5l168 509 q-25 6 -49.5 8.5t-48.5 2.5q-66 0 -123 -18.5t-99 -52.5t-66.5 -81t-24.5 -106zM375 59q37 -6 76 -6q145 0 237 72t92 201q0 51 -18.5 92t-50 72.5t-72.5 58t-86 49.5z" />
<glyph unicode="%" horiz-adv-x="1527" d="M94 -31l1317 1340h92l-1315 -1340h-94zM131 952q0 78 28.5 145.5t80 119t119 80t143.5 28.5q70 0 128 -21.5t101 -60.5t67.5 -95t24.5 -128q0 -78 -28.5 -145.5t-78.5 -117.5t-118 -79t-145 -29q-68 0 -127.5 21.5t-102.5 60.5t-67.5 95.5t-24.5 125.5zM205 958 q0 -111 69.5 -175t178.5 -64q63 0 117.5 22.5t94.5 62.5t62.5 94.5t22.5 117.5q0 111 -70 175t-180 64q-61 0 -115.5 -22.5t-94.5 -62.5t-62.5 -94t-22.5 -118zM772 250q0 78 28.5 145.5t80 118.5t119 80t143.5 29q70 0 128 -21.5t101 -60.5t67.5 -95.5t24.5 -128.5 q0 -78 -28.5 -145.5t-78.5 -117.5t-118 -78.5t-145 -28.5q-68 0 -127.5 21.5t-102.5 60.5t-67.5 95t-24.5 126zM846 256q0 -111 69.5 -175.5t178.5 -64.5q63 0 117.5 22.5t94.5 62.5t62.5 94.5t22.5 117.5q0 111 -70 175.5t-180 64.5q-61 0 -115.5 -22.5t-94.5 -62.5 t-62.5 -94.5t-22.5 -117.5z" />
<glyph unicode="&#x26;" horiz-adv-x="1282" d="M41 315q0 86 36 150.5t92 113t128 81t145 51.5q-70 45 -119 111.5t-49 152.5q0 74 33 135t85 105.5t119 70t134 25.5q61 0 116.5 -19.5t97.5 -55.5t65.5 -86t23.5 -114q0 -72 -29.5 -128t-77.5 -99t-109.5 -72.5t-123.5 -46.5q88 -55 158 -134t121 -171l315 387h105 l-383 -438l200 -344l-96 -13l-164 295q-47 -53 -98 -105t-109.5 -94t-125 -67.5t-144.5 -25.5q-72 0 -135.5 24.5t-110.5 69.5t-73.5 106.5t-26.5 134.5zM129 322q0 -57 20.5 -106.5t57.5 -85.5t86 -56.5t104 -20.5q66 0 126.5 26.5t114.5 66.5t103 88.5t90 91.5 q-61 106 -143 197t-192 149q-59 -18 -124 -48t-119 -73t-89 -100.5t-35 -128.5zM365 981q0 -43 15 -81t40.5 -69.5t58.5 -57.5t68 -46q53 16 108.5 40t101.5 59.5t75.5 85t29.5 112.5q0 96 -65.5 155.5t-163.5 59.5q-53 0 -101.5 -19.5t-85 -54.5t-59 -82t-22.5 -102z" />
<glyph unicode="'" horiz-adv-x="354" d="M59 815l385 512l88 -45l-399 -467h-74z" />
<glyph unicode="(" horiz-adv-x="686" d="M141 479q0 180 53.5 334t133.5 274.5t173 204.5t175 125l39 -71q-76 -39 -163 -119t-160 -192.5t-121 -253t-48 -302.5t48 -302t121 -251.5t160 -191.5t163 -119l-39 -74q-82 41 -175 125t-173 205t-133.5 274.5t-53.5 333.5z" />
<glyph unicode=")" horiz-adv-x="686" d="M-29 -385q78 39 164 119t158 191.5t120 251.5t48 302t-48 302.5t-120 253t-158 192.5t-164 119l39 71q82 -41 175.5 -125t173 -204.5t133 -274.5t53.5 -334t-53.5 -333.5t-133 -274.5t-173 -205t-175.5 -125z" />
<glyph unicode="*" horiz-adv-x="684" d="M106 866l285 113l2 10l-221 213l64 60l192 -248l6 2l135 278l78 -41l-176 -258l6 -8l297 -31l-16 -90l-289 84l-8 -6l67 -305l-88 -8l-20 309l-6 4l-271 -158z" />
<glyph unicode="+" horiz-adv-x="999" d="M86 444l6 74h369v385h82v-385h366l6 -74h-372v-389h-82v389h-375z" />
<glyph unicode="," horiz-adv-x="313" d="M-119 -252q104 57 150.5 115.5t46.5 113.5q0 56 -92 91q6 27 31.5 49t60.5 22q43 0 72.5 -36.5t29.5 -84.5q0 -47 -22.5 -92t-59.5 -85t-86 -72.5t-100 -57.5z" />
<glyph unicode="-" horiz-adv-x="561" d="M74 459v78h420v-78h-420z" />
<glyph unicode="." horiz-adv-x="313" d="M8 57q0 29 19.5 51.5t52.5 22.5t53.5 -22.5t20.5 -51.5q0 -31 -20.5 -54t-53.5 -23t-52.5 23.5t-19.5 53.5z" />
<glyph unicode="/" horiz-adv-x="403" d="M-233 -408l856 1846h77l-858 -1846h-75z" />
<glyph unicode="0" horiz-adv-x="1185" d="M96 432q0 113 43 213t118 176t174 121t212 45q96 0 179 -34.5t144.5 -96t96.5 -145t35 -181.5q0 -113 -43 -213t-118 -174.5t-175 -118.5t-213 -44q-96 0 -179 34.5t-143.5 95t-95.5 143.5t-35 179zM180 434q0 -82 28 -151.5t79 -119.5t120.5 -78t151.5 -28q98 0 181 38 t143.5 102.5t95.5 150.5t35 182q0 84 -29 154t-79 120t-119.5 77.5t-153.5 27.5q-98 0 -181 -37.5t-143.5 -103.5t-94.5 -152t-34 -182z" />
<glyph unicode="1" horiz-adv-x="630" d="M164 840l8 75l348 72l-192 -987h-82l176 893z" />
<glyph unicode="2" horiz-adv-x="864" d="M-2 0l18 96q143 90 270.5 169t221.5 153t149.5 146.5t55.5 148.5q0 47 -18.5 82.5t-50.5 62.5t-73 40t-86 13q-82 0 -154.5 -25.5t-135.5 -64.5l-15 72q70 41 148 67.5t168 26.5q61 0 115.5 -17.5t95.5 -51t65.5 -83t26.5 -114.5q2 -82 -50.5 -160t-143.5 -154.5 t-215 -157.5t-269 -169h598l-17 -80h-704z" />
<glyph unicode="3" horiz-adv-x="821" d="M-92 -252l39 72q66 -49 147.5 -78t163.5 -29q70 0 133.5 22.5t112.5 64.5t77.5 100.5t28.5 132.5q0 72 -30.5 121t-78.5 79.5t-108.5 44t-120.5 13.5q-49 0 -98 -6l12 65q70 10 158 34t167 66t132 105t53 154q0 53 -22.5 92t-58 63.5t-82 35.5t-95.5 11 q-76 0 -155.5 -27.5t-145.5 -68.5l-24 70q72 45 162 73.5t176 28.5q61 0 121.5 -16.5t106.5 -49t74.5 -84t28.5 -118.5q0 -80 -33.5 -142.5t-88 -108.5t-123 -78t-136.5 -50q66 -6 119 -30.5t93 -64.5t61.5 -93.5t21.5 -118.5q0 -90 -36.5 -163t-97 -125t-138.5 -79.5 t-162 -27.5q-92 0 -189.5 29.5t-164.5 80.5z" />
<glyph unicode="4" horiz-adv-x="978" d="M-45 115l846 884h80l-176 -882h194l-10 -74h-199l-84 -420h-84l84 420h-639zM61 117h562l153 753z" />
<glyph unicode="5" horiz-adv-x="837" d="M-100 -262l26 78q70 -51 147 -82t165 -31q80 0 149.5 27.5t121.5 77t82 119t30 153.5q0 131 -88.5 209t-229.5 78q-55 0 -103 -6.5t-96 -18.5l-28 43l192 584h576l-10 -80h-512l-154 -465q35 8 68.5 11t68.5 3q80 0 152.5 -22.5t127 -66.5t87.5 -109.5t33 -153.5 q0 -102 -37 -186t-99.5 -144.5t-148.5 -93.5t-184 -33q-86 0 -176.5 29t-159.5 80z" />
<glyph unicode="6" horiz-adv-x="993" d="M86 395q0 174 72.5 324.5t195.5 266.5t285 189.5t340 96.5l8 -82q-121 -14 -240.5 -58.5t-224 -115t-187.5 -167.5t-130 -218l2 -2q78 51 174 91t197 40q72 0 132 -24.5t104 -67.5t69.5 -102.5t25.5 -131.5q0 -94 -32.5 -177t-91 -144.5t-138.5 -96t-176 -34.5 q-90 0 -161.5 31.5t-121 87t-76 131t-26.5 163.5zM170 395q0 -72 22.5 -134t62.5 -107t96.5 -71t123.5 -26q78 0 141.5 29t108.5 78t70.5 115.5t25.5 142.5q0 125 -75.5 193.5t-196.5 68.5q-98 0 -189.5 -38t-169.5 -95q-10 -39 -15 -77t-5 -79z" />
<glyph unicode="7" horiz-adv-x="862" d="M-76 -377l883 1264h-684l22 82h758v-66l-887 -1280h-92z" />
<glyph unicode="8" horiz-adv-x="968" d="M59 289q0 84 31 146.5t82 108.5t117.5 74.5t138.5 43.5q-41 23 -81 51t-70.5 65t-50 84t-19.5 105q0 68 31.5 128t85 105t125 71.5t153.5 26.5q78 0 143.5 -22.5t112.5 -63.5t72.5 -98t25.5 -125q0 -72 -26.5 -129t-72.5 -101t-107.5 -76t-131.5 -50q43 -23 85 -53.5 t75 -68.5t53.5 -87t20.5 -109q0 -70 -32 -130t-87 -105t-129 -70.5t-158 -25.5t-155.5 22.5t-122.5 63.5t-80 96t-29 123zM147 299q0 -115 82 -179.5t226 -64.5q68 0 125 19.5t99 54.5t65.5 82t23.5 102q0 63 -28.5 110.5t-69.5 84.5t-89 64.5t-89 50.5q-63 -14 -126 -40 t-111 -64t-78 -92t-30 -128zM291 969q0 -59 27.5 -105.5t69.5 -81t88 -61t83 -49.5q59 16 115.5 40.5t99.5 62.5t69.5 89t26.5 117q0 109 -75.5 177.5t-194.5 68.5q-66 0 -122 -20.5t-98 -55.5t-65.5 -82t-23.5 -100z" />
<glyph unicode="9" horiz-adv-x="993" d="M20 -221q121 14 241 58t224.5 115t187.5 168t130 218l-2 2q-78 -51 -174.5 -91t-196.5 -40q-70 0 -131 24.5t-105 67.5t-70 102.5t-26 131.5q0 94 33 177t91.5 144.5t139 96t175.5 34.5q90 0 161.5 -30.5t120.5 -86t76 -131.5t27 -166q0 -174 -73 -324.5t-196 -266 t-284.5 -189.5t-339.5 -96zM186 547q0 -125 76 -193.5t197 -68.5q98 0 189 37.5t169 95.5q10 39 15.5 76.5t5.5 78.5q0 72 -22.5 134.5t-62.5 107.5t-96.5 70.5t-124.5 25.5q-76 0 -140 -28.5t-109 -77.5t-71 -115.5t-26 -142.5z" />
<glyph unicode=":" horiz-adv-x="313" d="M8 57q0 29 19.5 51.5t52.5 22.5t53.5 -22.5t20.5 -51.5q0 -31 -20.5 -54t-53.5 -23t-52.5 23.5t-19.5 53.5zM133 731q0 29 19.5 51.5t52.5 22.5t53.5 -22.5t20.5 -51.5q0 -31 -20.5 -54.5t-53.5 -23.5t-52.5 23.5t-19.5 54.5z" />
<glyph unicode=";" horiz-adv-x="313" d="M-119 -252q104 57 150.5 115.5t46.5 113.5q0 56 -92 91q6 27 31.5 49t60.5 22q43 0 72.5 -36.5t29.5 -84.5q0 -47 -22.5 -92t-59.5 -85t-86 -72.5t-100 -57.5zM133 731q0 29 19.5 51.5t52.5 22.5t53.5 -22.5t20.5 -51.5q0 -31 -20.5 -54.5t-53.5 -23.5t-52.5 23.5 t-19.5 54.5z" />
<glyph unicode="&#x3c;" horiz-adv-x="894" d="M72 432v98l739 394v-86l-666 -349v-18l666 -348v-84z" />
<glyph unicode="=" horiz-adv-x="876" d="M74 268l6 78h719l6 -78h-731zM74 692h731l-6 -78h-719z" />
<glyph unicode="&#x3e;" horiz-adv-x="894" d="M98 39v84l666 348v18l-666 349v86l740 -394v-98z" />
<glyph unicode="?" horiz-adv-x="700" d="M156 57q0 29 19.5 51.5t51.5 22.5q33 0 53.5 -22.5t20.5 -51.5q0 -31 -20.5 -54t-53.5 -23t-52 23.5t-19 53.5zM180 541q0 78 62.5 128t175.5 87q111 37 169 87t58 146q0 57 -21.5 102.5t-58.5 76t-86 47t-104 16.5q-41 0 -66.5 -2t-46.5 -6l14 77q20 4 46 6.5t57 2.5 q84 0 149.5 -28t109.5 -73t66.5 -102.5t22.5 -116.5q0 -68 -22.5 -116t-59.5 -82.5t-87 -59t-105 -43.5q-106 -35 -151.5 -69.5t-45.5 -88.5q0 -41 28.5 -78.5t75.5 -78.5q-16 -2 -28 -6q-10 -4 -19.5 -6.5t-11.5 -2.5q-45 35 -83 80t-38 103z" />
<glyph unicode="@" horiz-adv-x="1708" d="M100 496q0 164 60.5 309t166 253.5t248 172t306.5 63.5q147 0 280 -47t234.5 -133t161 -209.5t59.5 -277.5q0 -125 -31 -222.5t-82 -163t-116.5 -99t-133.5 -33.5q-90 0 -149.5 46t-79.5 105q-70 -86 -131.5 -118.5t-126.5 -32.5q-66 0 -119 25.5t-90 71.5t-57.5 107.5 t-20.5 130.5q0 98 34 187.5t92.5 155t134 104.5t159.5 39q68 0 120 -24.5t93 -55.5l92 59l-100 -481q-27 -125 17 -189.5t136 -64.5q53 0 105.5 28.5t94.5 86t67.5 141.5t25.5 197q0 139 -56 252.5t-149.5 193.5t-214 124t-249.5 44q-150 0 -280 -60.5t-227.5 -163 t-152.5 -236.5t-55 -283q0 -143 48 -268.5t135 -218.5t208 -147t264 -54q59 0 129 13t121 30l12 -58q-66 -20 -135 -30.5t-131 -10.5q-156 0 -288 57.5t-227 158t-148.5 235.5t-53.5 291zM565 444q0 -55 14.5 -103t42 -84t68.5 -56.5t94 -20.5t109.5 32t110.5 103l92 457 q-35 35 -87.5 62.5t-117.5 27.5q-66 0 -125 -33.5t-103.5 -91t-71 -133.5t-26.5 -160z" />
<glyph unicode="A" horiz-adv-x="1179" d="M-39 0l737 1280h107l233 -1280h-82l-67 379h-621l-213 -379h-94zM313 457h559l-131 745z" />
<glyph unicode="B" horiz-adv-x="1073" d="M78 0l248 1280h317q98 0 172 -24.5t122 -66.5t72.5 -98.5t24.5 -121.5q0 -123 -84 -212t-250 -118q117 -23 187.5 -100.5t70.5 -184.5q0 -72 -28.5 -136t-89 -112.5t-154.5 -77t-223 -28.5h-385zM178 78h295q104 0 179 21.5t124 58.5t71.5 88t22.5 110q0 47 -20.5 92.5 t-63.5 80t-107.5 55t-154.5 20.5h-243zM297 678h244q74 0 145.5 16.5t129.5 50t94 86.5t36 125q0 47 -16.5 92.5t-55 79t-99 54t-150.5 20.5h-228z" />
<glyph unicode="C" horiz-adv-x="1169" d="M115 532q0 145 47 283.5t137 246t222 173t300 65.5q100 0 199.5 -21.5t189.5 -61.5l-16 -82q-37 16 -82 32.5t-94 28.5t-100.5 19.5t-100.5 7.5q-147 0 -263 -59.5t-193.5 -156t-118.5 -218t-41 -248.5q0 -117 34.5 -207t98 -151.5t152.5 -93.5t198 -32q80 0 159 19.5 t150 54.5l17 -80q-74 -35 -163 -53t-171 -18q-131 0 -234.5 39.5t-176 112.5t-111.5 174.5t-39 225.5z" />
<glyph unicode="D" horiz-adv-x="1251" d="M78 0l248 1280h241q129 0 240 -37t191.5 -108.5t126.5 -174t46 -235.5q0 -152 -50 -284t-148.5 -230t-242.5 -154.5t-333 -56.5h-319zM180 78h226q141 0 264 40t214 120.5t143 200.5t52 280q0 115 -36.5 205t-105.5 151.5t-167 94t-219 32.5h-154z" />
<glyph unicode="E" horiz-adv-x="1003" d="M78 0l250 1280h733l-17 -78h-647l-100 -524h541l-15 -76h-540l-103 -524h647l-16 -78h-733z" />
<glyph unicode="F" horiz-adv-x="950" d="M78 0l248 1280h714l-14 -80h-629l-104 -541h522l-16 -75h-523l-112 -584h-86z" />
<glyph unicode="G" horiz-adv-x="1239" d="M115 532q0 145 47 283.5t137 246t222 173t300 65.5q100 0 199.5 -21.5t189.5 -61.5l-16 -82q-37 16 -82 32.5t-94 28.5t-100.5 19.5t-100.5 7.5q-147 0 -263 -59.5t-193.5 -156t-118.5 -218t-41 -248.5q0 -117 34.5 -207t98 -152.5t152.5 -94.5t198 -32q76 0 146.5 19.5 t136.5 50.5l80 418h-345l17 75h428l-103 -536q-37 -23 -83 -41t-95 -32.5t-98 -21.5t-92 -7q-131 0 -234.5 39.5t-176 112.5t-111.5 174.5t-39 225.5z" />
<glyph unicode="H" horiz-adv-x="1306" d="M78 0l248 1280h86l-115 -598h799l114 598h86l-247 -1280h-86l116 604h-798l-117 -604h-86z" />
<glyph unicode="I" horiz-adv-x="425" d="M76 0l250 1280h86l-250 -1280h-86z" />
<glyph unicode="J" horiz-adv-x="839" d="M-51 94l33 76q63 -51 139 -82t155 -31q129 0 209 77t113 239l176 907h86l-178 -926q-35 -174 -133 -274t-273 -100q-102 0 -188 34.5t-139 79.5z" />
<glyph unicode="K" horiz-adv-x="1034" d="M78 0l248 1280h86l-119 -618h2l764 618h119l-807 -645l553 -635h-103l-536 616h-2l-119 -616h-86z" />
<glyph unicode="L" horiz-adv-x="944" d="M78 0l250 1280h86l-234 -1202h647l-16 -78h-733z" />
<glyph unicode="M" horiz-adv-x="1531" d="M47 0l291 1280h121l229 -1210l694 1210h131l-210 -1280h-86l198 1180l-680 -1182h-110l-228 1184l-262 -1182h-88z" />
<glyph unicode="N" horiz-adv-x="1284" d="M78 0l248 1280h100l547 -1180l227 1180h82l-252 -1292h-94l-551 1190l-225 -1178h-82z" />
<glyph unicode="O" d="M121 561q0 147 52 280.5t144.5 236t220.5 162.5t279 60q123 0 226.5 -44t178 -120.5t115.5 -182t41 -228.5q0 -145 -52 -280.5t-145.5 -239t-220 -164.5t-278.5 -61q-123 0 -226.5 44t-178 121.5t-115.5 184t-41 231.5zM207 561q0 -106 34.5 -198.5t98 -161t154 -107.5 t198.5 -39q133 0 242.5 57.5t189.5 151.5t124 214t44 245q0 109 -35.5 201t-100 159.5t-154 105.5t-197.5 38q-133 0 -242.5 -56.5t-188.5 -150.5t-123 -213t-44 -246z" />
<glyph unicode="P" horiz-adv-x="1024" d="M76 0l250 1280h288q104 0 183.5 -27.5t130.5 -75t76.5 -109.5t25.5 -134q0 -217 -154 -340q-149 -119 -424 -119h-18l-178 2l-94 -477h-86zM270 553l179 -2h18q225 -1 347 95q126 100 126 274q0 59 -21.5 110t-64.5 90t-105.5 60.5t-146.5 21.5h-205z" />
<glyph unicode="Q" d="M121 561q0 147 52 280.5t144.5 236t220.5 162.5t279 60q123 0 226.5 -44t178 -120.5t115.5 -182t41 -228.5t-37.5 -239.5t-105.5 -213t-164 -167t-213 -103.5l383 -260l-49 -70l-436 312q-16 -2 -33.5 -3t-36.5 -1q-123 0 -227.5 44t-179 121.5t-116.5 184t-42 231.5z M207 561q0 -106 34.5 -198.5t98 -161t154 -107.5t198.5 -39q133 0 242.5 57.5t189.5 151.5t124 214t44 245q0 109 -35.5 201t-100 159.5t-154 105.5t-197.5 38q-133 0 -242.5 -56.5t-188.5 -150.5t-123 -213t-44 -246z" />
<glyph unicode="R" horiz-adv-x="1050" d="M78 0l248 1280h258q113 0 194.5 -27.5t134 -73.5t78 -108.5t25.5 -130.5q0 -86 -35 -152.5t-90 -113.5t-123 -77t-133 -40l237 -557h-90l-229 547l-287 -17l-102 -530h-86zM283 606l225 4q74 2 148.5 21.5t134 58.5t97.5 98.5t38 143.5q0 119 -82 194.5t-264 75.5h-183z " />
<glyph unicode="S" horiz-adv-x="970" d="M23 121l28 80q80 -66 184.5 -107t215.5 -41q74 0 134 20.5t104 57.5t67.5 87t23.5 108q0 59 -24.5 104t-64.5 80t-92 62.5t-105 54.5q-55 27 -109.5 57.5t-97.5 69.5t-68.5 89t-25.5 118q0 84 33.5 147t91 106t131 64.5t153.5 21.5q104 0 210 -36.5t175 -94.5l-29 -79 q-70 59 -169 97t-197 38q-61 0 -118.5 -18.5t-100.5 -52.5t-68.5 -81t-25.5 -106q0 -53 23.5 -94.5t62 -73t88 -58t100.5 -51.5q61 -31 117.5 -63.5t99.5 -73.5t68.5 -93t25.5 -124q0 -84 -33.5 -149.5t-90 -111.5t-132.5 -70.5t-162 -24.5q-121 0 -232.5 38.5t-190.5 102.5 z" />
<glyph unicode="T" horiz-adv-x="1077" d="M199 1202l14 78h991l-14 -78h-453l-233 -1202h-86l233 1202h-452z" />
<glyph unicode="U" horiz-adv-x="1200" d="M127 334q0 59 9 117.5t16 91.5l145 737h84l-145 -748q-6 -31 -15.5 -80t-9.5 -108q0 -127 91 -208t276 -81q158 0 261 105.5t140 292.5l160 827h84l-162 -844q-41 -211 -164 -333.5t-326 -122.5q-102 0 -185 26.5t-140.5 73.5t-88 112.5t-30.5 141.5z" />
<glyph unicode="V" horiz-adv-x="1122" d="M199 1280h86l202 -1196l658 1196h92l-713 -1280h-102z" />
<glyph unicode="W" horiz-adv-x="1826" d="M262 1280h84l98 -1147l574 1147h108l134 -1147l526 1147h94l-602 -1280h-80l-141 1188l-598 -1188h-80z" />
<glyph unicode="X" horiz-adv-x="1126" d="M-61 0l612 668l-330 612h92l297 -567l504 567h107l-572 -627l355 -653h-95l-319 606l-543 -606h-108z" />
<glyph unicode="Y" horiz-adv-x="1038" d="M186 1280h88l269 -680l520 680h104l-594 -764l-100 -516h-86l100 520z" />
<glyph unicode="Z" horiz-adv-x="1019" d="M-37 0l12 61l1006 1143h-754l15 76h868l-10 -61l-1006 -1143h783l-15 -76h-899z" />
<glyph unicode="[" horiz-adv-x="837" d="M233 -455v1837h502v-73h-416v-1690h416v-74h-502z" />
<glyph unicode="\" horiz-adv-x="403" d="M168 1438h70l139 -1846h-68z" />
<glyph unicode="]" horiz-adv-x="837" d="M102 -381h416v1690h-416v73h502v-1837h-502v74z" />
<glyph unicode="^" horiz-adv-x="735" d="M244 1055l301 362h102l158 -362h-62l-153 295h-4l-269 -295h-73z" />
<glyph unicode="_" horiz-adv-x="878" d="M-18 0h915v-78h-915v78z" />
<glyph unicode="`" horiz-adv-x="817" d="M334 1417h112l197 -362h-57z" />
<glyph unicode="a" horiz-adv-x="874" d="M33 233q0 162 153.5 238t485.5 76l12 59q9 40 9 75q-1 73 -39 125q-56 77 -187 77q-76 0 -149.5 -27t-131.5 -61l-18 73q59 35 138 62.5t167 27.5q74 0 135.5 -21.5t102.5 -64.5q41 -44 57 -110q8 -31 8 -67q0 -41 -10 -89l-92 -461q-3 -16 -3 -31q0 -22 7 -40 q11 -28 68 -27h8l-9 -63h-17q-70 0 -98 30q-32 34 -32 101h-2q-53 -59 -131 -97t-164 -38q-59 0 -108.5 21.5t-85 57t-55 80.5t-19.5 94zM117 242q0 -74 52 -131.5t150 -57.5q80 0 154 40t127 100l59 284q-150 0 -253 -16.5t-167.5 -47t-93 -74.5t-28.5 -97z" />
<glyph unicode="b" horiz-adv-x="1038" d="M57 -20l273 1400l90 27l-111 -571q47 41 120 76.5t165 35.5q78 0 143.5 -29.5t113.5 -83t75.5 -126t27.5 -158.5q0 -123 -37.5 -227.5t-104.5 -181t-157 -119.5t-194 -43q-92 0 -169 32.5t-130 79.5zM178 168q47 -51 125 -85t164 -34t160.5 39t128 105.5t84 155 t30.5 186.5q0 78 -21.5 141t-59 108t-90 70t-115.5 25q-86 0 -162 -40t-133 -98z" />
<glyph unicode="c" horiz-adv-x="911" d="M86 403q0 104 36 204t102.5 178.5t158.5 125.5t205 47q96 0 174 -30.5t133 -77.5l-35 -72q-49 41 -122.5 72t-159.5 31q-82 0 -155 -38t-128 -102.5t-87 -149.5t-32 -177q0 -76 21.5 -141.5t62.5 -113.5t101.5 -75t136.5 -27q61 0 121.5 16.5t111.5 41.5l6 -78 q-51 -25 -115.5 -41t-127.5 -16q-92 0 -167 31.5t-128.5 89t-83 134t-29.5 168.5z" />
<glyph unicode="d" horiz-adv-x="1036" d="M82 377q0 123 39 227.5t106.5 181t159.5 119.5t199 43q86 0 159.5 -33.5t126.5 -89.5l109 555l88 27l-274 -1407h-84l16 88q-47 -41 -117.5 -74.5t-165.5 -33.5q-76 0 -141 28.5t-114.5 80.5t-78 126t-28.5 162zM166 393q0 -78 21.5 -141.5t59.5 -108.5t90 -69.5 t116 -24.5q86 0 162.5 37t129.5 90l113 584q-47 51 -124 85t-154 34q-88 0 -164 -40t-131.5 -106.5t-87 -155t-31.5 -184.5z" />
<glyph unicode="e" horiz-adv-x="942" d="M90 403q0 109 36 209.5t98.5 177t149.5 122.5t189 46q70 0 128.5 -21.5t100.5 -59t65.5 -90t23.5 -111.5q0 -43 -11.5 -92t-31.5 -95l-656 -4q-2 -18 -3 -35.5t-1 -35.5q0 -76 22.5 -141.5t63.5 -113.5t102.5 -75t137.5 -27q61 0 121.5 16.5t111.5 41.5l6 -78 q-51 -25 -115.5 -41t-127.5 -16q-92 0 -167 31.5t-129 89t-84 134t-30 168.5zM197 559h573q20 53 21 113q0 86 -61.5 147.5t-172.5 61.5q-66 0 -124 -26t-104 -70t-80 -102t-52 -124z" />
<glyph unicode="f" horiz-adv-x="567" d="M76 0l166 850l-127 8l6 55l133 17l43 200q18 82 46 138.5t64.5 91.5t80.5 50t94 15q51 0 99 -15t85 -44l-35 -72q-33 23 -70.5 38.5t-85.5 15.5q-78 0 -125 -59.5t-69 -162.5l-41 -198h276l-6 -74h-284l-166 -854h-84z" />
<glyph unicode="g" horiz-adv-x="942" d="M-106 -238q0 96 68.5 167t203.5 112q-33 16 -57.5 50t-24.5 79q0 59 44.5 105.5t107.5 62.5q-49 41 -81 102.5t-32 143.5q0 84 32.5 152.5t86 117.5t122 76.5t140.5 27.5q66 0 116 -14t89 -41l288 19l9 -93l-238 11q29 -41 46 -89.5t17 -101.5q0 -86 -32.5 -155.5 t-87 -118.5t-125 -77t-148.5 -28q-84 0 -157 39q-53 -20 -83 -53t-30 -66q0 -47 44 -79.5t165 -57.5l80 -16q147 -31 230 -88.5t83 -159.5q0 -53 -27.5 -106.5t-85 -96.5t-144.5 -70.5t-208 -27.5q-92 0 -168 19.5t-130 55.5t-83.5 86t-29.5 113zM-20 -231q0 -51 25.5 -90 t70.5 -66t107.5 -40t133.5 -13q82 0 150 16t117 45t76.5 70t27.5 88q0 76 -72.5 120t-222.5 72q-37 8 -80.5 18.5t-72.5 18.5q-133 -29 -196.5 -90t-63.5 -149zM203 590q0 -111 66 -181.5t177 -70.5q66 0 122.5 24.5t96.5 66.5t62.5 95.5t22.5 110.5q0 117 -68 186.5 t-184 69.5q-57 0 -111.5 -24.5t-94.5 -65.5t-64.5 -95.5t-24.5 -115.5z" />
<glyph unicode="h" horiz-adv-x="1007" d="M61 0l269 1380l90 27l-115 -588q78 63 163 101t171 38q123 0 193.5 -68.5t70.5 -184.5q0 -23 -3 -50.5t-11 -68.5l-115 -586h-84l113 582q14 72 14 108q0 88 -50 141.5t-155 53.5q-78 0 -157.5 -40t-165.5 -106l-144 -739h-84z" />
<glyph unicode="i" horiz-adv-x="397" d="M66 0l180 932l88 26l-184 -958h-84zM268 1227q0 31 19.5 54.5t54.5 23.5t57.5 -23.5t22.5 -54.5q0 -33 -21.5 -57.5t-56.5 -24.5t-55.5 24.5t-20.5 57.5z" />
<glyph unicode="j" horiz-adv-x="395" d="M-227 -449q61 25 106 54.5t78 69.5t53.5 94.5t34.5 126.5l201 1036l88 26l-209 -1083q-33 -164 -105.5 -253t-199.5 -136zM268 1227q0 31 19.5 54.5t54.5 23.5t57.5 -23.5t22.5 -54.5q0 -33 -21.5 -57.5t-56.5 -24.5t-55.5 24.5t-20.5 57.5z" />
<glyph unicode="k" horiz-adv-x="843" d="M61 0l269 1380l90 27l-174 -887h4l518 418h125l-561 -440l393 -498h-104l-377 487h-4l-95 -487h-84z" />
<glyph unicode="l" horiz-adv-x="385" d="M61 0l269 1380l90 27l-275 -1407h-84z" />
<glyph unicode="m" horiz-adv-x="1548" d="M61 0l181 932l90 26l-25 -124q66 59 140.5 91.5t154.5 32.5q92 0 156.5 -44t89.5 -119q74 76 160 119.5t178 43.5q117 0 187.5 -68.5t70.5 -184.5q0 -23 -3 -50.5t-11 -68.5l-115 -586h-84l112 582q14 72 15 108q0 88 -49 141.5t-146 53.5q-78 0 -152.5 -40t-150.5 -110 v-30q0 -23 -4 -56t-12 -74l-113 -575h-84l113 582q14 72 14 108q0 88 -49 141.5t-145 53.5q-74 0 -146 -36t-143 -99l-146 -750h-84z" />
<glyph unicode="n" horiz-adv-x="1007" d="M61 0l181 932l90 26l-27 -139q78 63 163 101t171 38q123 0 193.5 -68.5t70.5 -184.5q0 -23 -4 -56t-12 -74l-113 -575h-84l113 582q14 72 14 108q0 88 -50 141.5t-155 53.5q-78 0 -157.5 -42t-165.5 -108l-144 -735h-84z" />
<glyph unicode="o" horiz-adv-x="1089" d="M86 403q0 111 38 210.5t105.5 176t162.5 121.5t208 45q92 0 167 -31.5t127 -88t81 -134.5t29 -170q0 -111 -38 -210t-105.5 -174.5t-162 -120.5t-209.5 -45q-92 0 -166.5 31.5t-127 87t-81 133t-28.5 169.5zM172 408q0 -76 21.5 -140.5t63.5 -111.5t102.5 -74t136.5 -27 q96 0 174 39t133 104.5t85 150.5t30 175q0 76 -22 141.5t-62.5 113.5t-101 76t-138.5 28q-96 0 -174 -41t-133.5 -107.5t-85 -151.5t-29.5 -175z" />
<glyph unicode="p" horiz-adv-x="1040" d="M-31 -477l273 1409l90 26l-23 -118q47 41 118 74.5t165 33.5q76 0 141.5 -28.5t114.5 -81t77.5 -125t28.5 -162.5q0 -123 -37.5 -227.5t-105.5 -181t-160 -119.5t-200 -43q-86 0 -160 33.5t-127 88.5l-113 -579h-82zM178 168q47 -51 124 -85t155 -34q88 0 163.5 40 t131 106.5t87 154.5t31.5 185q0 78 -21.5 141t-59 108t-90 70t-115.5 25q-86 0 -163 -37t-130 -90z" />
<glyph unicode="q" horiz-adv-x="1036" d="M84 377q0 123 39 227.5t106.5 181t159.5 119.5t199 43q86 0 159.5 -33.5t126.5 -89.5l107 121l-276 -1423h-87l111 565q-47 -41 -117.5 -74.5t-165.5 -33.5q-76 0 -141 28.5t-114.5 80.5t-78 126t-28.5 162zM168 393q0 -78 21.5 -141.5t59.5 -108.5t90 -69.5t116 -24.5 q86 0 162.5 37t130.5 90l112 584q-47 51 -124 85t-154 34q-88 0 -164 -40t-131.5 -106.5t-87 -155t-31.5 -184.5z" />
<glyph unicode="r" horiz-adv-x="675" d="M61 0l181 932l90 26l-39 -198q51 90 121.5 144t152.5 54q53 0 98.5 -12t79.5 -33l-22 -79q-25 16 -68 31.5t-92 15.5q-170 0 -303 -291l-115 -590h-84z" />
<glyph unicode="s" horiz-adv-x="749" d="M-4 92l37 70q53 -43 126.5 -76t153.5 -33q102 0 172 51.5t70 139.5q0 31 -9 55.5t-33 47t-63.5 48t-103.5 56.5q-49 25 -90 49t-69.5 53t-44 65.5t-15.5 86.5q0 59 24.5 106t66.5 80t96.5 50t111.5 17q86 0 163 -27.5t134 -68.5l-37 -69q-57 41 -123.5 67.5t-140.5 26.5 q-94 0 -154.5 -47t-60.5 -125q0 -35 10 -60.5t33.5 -49t63.5 -47t100 -52.5q115 -55 169 -109.5t54 -142.5q0 -57 -24.5 -107.5t-67.5 -87t-103.5 -58t-132.5 -21.5q-92 0 -179 34.5t-134 77.5z" />
<glyph unicode="t" horiz-adv-x="663" d="M98 154q0 59 23 155l121 541l-121 8l6 55l131 17l51 223h82l-51 -225h340l-6 -74h-350l-123 -555q-10 -45 -15.5 -72.5t-5.5 -54.5q0 -66 38 -96.5t108 -30.5q53 0 95 12.5t81 26.5l14 -72q-41 -18 -94 -30.5t-105 -12.5q-102 0 -160.5 49.5t-58.5 135.5z" />
<glyph unicode="u" horiz-adv-x="1007" d="M106 233q0 23 4.5 56t12.5 73l113 576h83l-112 -582q-14 -72 -14 -108q0 -88 50 -141.5t154 -53.5q78 0 158 40t166 106l143 739h84l-180 -932l-90 -26l27 139q-78 -63 -163 -101t-171 -38q-123 0 -194 68.5t-71 184.5z" />
<glyph unicode="v" horiz-adv-x="829" d="M98 938h86l158 -819l475 819h94l-551 -940h-73z" />
<glyph unicode="w" horiz-adv-x="1288" d="M125 938h82l82 -803l424 803h78l114 -807l381 807h90l-456 -940h-74l-115 813l-436 -813h-68z" />
<glyph unicode="x" horiz-adv-x="768" d="M-84 0l420 487l-211 451h90l176 -403l326 403h96l-385 -463l231 -475h-90l-194 428l-363 -428h-96z" />
<glyph unicode="y" horiz-adv-x="829" d="M-209 -422l45 68q23 -16 45.5 -27.5t57.5 -11.5q18 0 39.5 7t49 29.5t61.5 63.5t75 111l117 202l-179 918h86l154 -823l475 823h94l-565 -956l-121 -205q-45 -78 -85 -126t-74.5 -76t-67.5 -37t-64 -9q-47 0 -80.5 14.5t-62.5 34.5z" />
<glyph unicode="z" horiz-adv-x="765" d="M-53 0l12 57l725 807h-549l15 74h655l-12 -57l-725 -807h567l-14 -74h-674z" />
<glyph unicode="{" horiz-adv-x="663" d="M33 475l6 53q154 12 213 57.5t59 149.5q0 51 -17.5 101.5t-37.5 103.5t-37.5 110.5t-17.5 120.5q0 127 112.5 180.5t319.5 65.5v-69q-193 -14 -269.5 -53.5t-76.5 -112.5q0 -49 17.5 -105.5t37.5 -115t37.5 -112.5t17.5 -101t-15 -94.5t-50 -85.5t-90.5 -63.5 t-132.5 -29.5v-2q78 -4 133 -29.5t90 -63.5t50 -85t15 -96q0 -45 -17.5 -100.5t-37.5 -112t-37.5 -111.5t-17.5 -102q0 -78 76.5 -118t269.5 -54v-70q-104 6 -184 21.5t-135.5 44t-84 72.5t-28.5 108q0 66 17.5 123t37.5 110t37.5 103.5t17.5 99.5q0 51 -13 88t-46 61.5 t-84 39t-129 20.5z" />
<glyph unicode="|" horiz-adv-x="548" d="M231 -408v1846h86v-1846h-86z" />
<glyph unicode="}" horiz-adv-x="663" d="M29 -401q96 8 162.5 20t107.5 32.5t59.5 48.5t18.5 64q0 49 -17.5 105.5t-38 115t-38 114t-17.5 100.5q0 47 15.5 94t50.5 85t90 63.5t133 29.5v2q-78 4 -133 29.5t-90 63.5t-50.5 85t-15.5 97q0 47 17.5 101t38 111.5t38 112.5t17.5 103q0 39 -18.5 67.5t-59.5 48 t-107.5 32.5t-162.5 22v69q104 -6 185 -21.5t136.5 -44t84 -72.5t28.5 -108q0 -66 -17.5 -123t-39 -110t-39 -103.5t-17.5 -99.5q0 -51 14.5 -88t46 -61.5t85 -39t129.5 -20.5l4 -53l-4 -53q-154 -12 -214.5 -57.5t-60.5 -149.5q0 -51 17.5 -101.5t39 -103.5t39 -110.5 t17.5 -120.5t-28.5 -107.5t-84 -73t-136.5 -44t-185 -21.5v70z" />
<glyph unicode="~" horiz-adv-x="819" d="M74 369q66 213 196 213q41 0 80 -23.5t75 -52.5t67.5 -52.5t58.5 -23.5q33 0 59.5 26.5t65.5 114.5h59q-66 -213 -196 -213q-41 0 -79 24t-74 52.5t-67.5 52t-60.5 23.5q-16 0 -30.5 -6t-30 -21.5t-30.5 -43t-36 -70.5h-57z" />
<glyph unicode="&#xa1;" horiz-adv-x="497" d="M96 -39l213 959l47 -5l-157 -964zM319 1223q0 31 20.5 54t53.5 23t52.5 -23.5t19.5 -53.5q0 -29 -19.5 -51.5t-52.5 -22.5t-53.5 22.5t-20.5 51.5z" />
<glyph unicode="&#xa2;" horiz-adv-x="870" d="M86 403q0 109 38 209.5t105.5 177t159.5 122.5t199 46q37 0 67 -6l66 197h74l-70 -209q51 -16 93 -38.5t77 -51.5l-35 -72q-31 27 -71.5 48.5t-88.5 35.5l-19 -58q-19 -59 -49 -148t-63.5 -192.5t-63.5 -192.5t-49 -149l-20 -61q16 -2 30.5 -3t31.5 -1q61 0 121.5 16.5 t111.5 41.5l6 -78q-51 -25 -115.5 -41t-127.5 -16q-47 0 -82 8l-78 -240h-74l84 256q-119 45 -188.5 151.5t-69.5 247.5zM176 414q0 -119 50 -207t143 -127l262 797q-12 2 -25.5 3t-27.5 1q-88 0 -162 -40t-127 -105.5t-83 -149.5t-30 -172z" />
<glyph unicode="&#xa3;" horiz-adv-x="980" d="M-55 37q66 14 116 33.5t86.5 50.5t61 77t39.5 113q14 66 23.5 131.5t17.5 130.5h-185l-4 76h199q14 139 43 279q16 82 45 151.5t75 121.5t111.5 82t155.5 30q86 0 159 -22.5t140 -67.5l-33 -74q-61 41 -126.5 64.5t-141.5 23.5q-70 0 -121 -23.5t-86 -65.5t-57.5 -96.5 t-34.5 -115.5q-14 -72 -24.5 -143.5t-20.5 -143.5h395l-8 -76h-397q-8 -66 -17.5 -131t-23.5 -131q-6 -29 -12.5 -53.5t-16.5 -46.5q29 -33 66 -62.5t77.5 -52t83.5 -37t82 -14.5q51 0 89 18.5t67 48t50.5 68.5t37.5 82l59 -18q-18 -55 -43.5 -105.5t-63.5 -87.5t-87 -58.5 t-113 -21.5q-98 0 -184 51.5t-152 124.5q-47 -78 -123.5 -118.5t-197.5 -63.5z" />
<glyph unicode="&#xa4;" horiz-adv-x="1036" d="M76 444l6 72h139q4 39 10.5 81t14.5 87q4 23 9 43.5t9 40.5h-121l-6 72h148q72 217 200.5 337.5t313.5 120.5q90 0 180 -28.5t143 -63.5l-32 -71q-57 39 -138.5 64.5t-156.5 25.5q-301 0 -424 -385h497l-6 -72h-512q-4 -20 -9 -40.5t-9 -43.5q-18 -88 -25 -168h432l6 -72 h-442q-2 -195 87 -294t282 -99q59 0 111.5 9.5t99.5 25.5l-2 -74q-47 -16 -99.5 -24t-115.5 -11q-229 0 -339 119t-108 348h-143z" />
<glyph unicode="&#xa5;" horiz-adv-x="1120" d="M80 268l8 74h365l41 201h-353l-4 73h332l-283 664h88l271 -668l518 668h104q-152 -186 -268 -332q-49 -61 -97 -121.5t-86 -106.5t-62 -75l-23 -29h319l-8 -73h-362l-41 -201h350l4 -74h-369l-51 -268h-86l51 268h-358z" />
<glyph unicode="&#xa6;" horiz-adv-x="768" d="M-55 74l32 80q49 -45 119 -73t133 -28q233 0 289 289l182 938h86l-184 -946q-35 -178 -124 -266t-242 -88q-94 0 -169 28.5t-122 65.5z" />
<glyph unicode="&#xa7;" horiz-adv-x="958" d="M63 -18l41 67q59 -51 132 -83t151 -32q41 0 84 10.5t80 33t60.5 56.5t23.5 81q0 45 -19.5 76.5t-55.5 58t-86 49.5t-112 49q-55 25 -107 50.5t-94 57t-66.5 70.5t-24.5 90q0 63 30.5 111.5t78.5 82.5t106.5 54.5t111.5 26.5q-43 29 -70.5 74t-27.5 98q0 66 25.5 113 t67.5 77.5t95.5 46t110.5 15.5q84 0 161 -26.5t146 -71.5l-41 -68q-63 41 -127.5 68.5t-142.5 27.5q-37 0 -76 -9t-69.5 -28.5t-51 -52.5t-20.5 -80q0 -45 19.5 -76.5t55 -58.5t86 -49.5t111.5 -48.5q55 -25 107.5 -50.5t94.5 -57.5t66.5 -71t24.5 -90q0 -63 -30.5 -111 t-79 -82t-106.5 -54.5t-112 -26.5q43 -29 71 -74t28 -98q0 -63 -29 -112.5t-76 -83t-105.5 -50t-117.5 -16.5q-82 0 -170 31.5t-152 85.5zM147 627q0 -45 28 -81t69 -62.5t86 -46t80 -34.5q37 -16 72.5 -30.5t70.5 -32.5q53 10 108.5 26.5t100.5 43t73.5 63.5t28.5 90 q0 47 -27.5 82t-68.5 61.5t-86 46t-80 33.5q-37 16 -72.5 30.5t-70.5 33.5q-51 -10 -106.5 -26.5t-101.5 -43t-75 -63.5t-29 -90z" />
<glyph unicode="&#xa8;" horiz-adv-x="737" d="M301 1227q0 29 18.5 50t51.5 21t52 -21t19 -50t-19.5 -52.5t-51.5 -23.5q-33 0 -51.5 23.5t-18.5 52.5zM670 1227q0 29 20.5 50t52.5 21q31 0 50.5 -21t19.5 -50t-19.5 -52.5t-50.5 -23.5q-33 0 -53 23.5t-20 52.5z" />
<glyph unicode="&#xa9;" horiz-adv-x="1497" d="M123 637q0 139 52 261t143.5 213t213 144.5t261.5 53.5q139 0 261 -53.5t213 -144.5t143 -213t52 -261q0 -137 -52 -260t-143 -213t-213 -143.5t-261 -53.5t-261 53.5t-213.5 143.5t-143.5 213t-52 260zM180 639q0 -125 48 -237.5t131 -195.5t195 -132t239 -49t239.5 49 t195.5 132t131 195.5t48 237.5q0 127 -48 238.5t-131 195.5t-195.5 133t-239.5 49t-239 -49t-195 -133t-131 -195.5t-48 -238.5zM463 635q0 86 25.5 155.5t72.5 120t112.5 77t143.5 26.5q66 0 124 -16.5t99 -43.5l-26 -71q-90 57 -197 57q-119 0 -194.5 -79t-75.5 -224 q0 -139 73.5 -221t196.5 -82q59 0 111.5 18.5t91.5 46.5l14 -80q-41 -29 -98 -44t-121 -15q-160 0 -256 100.5t-96 274.5z" />
<glyph unicode="&#xaa;" horiz-adv-x="665" d="M92 700q0 127 121 202t379 69l10 49q23 104 -15 161.5t-147 57.5q-61 0 -120.5 -23.5t-106.5 -50.5l-18 60q49 29 116.5 52t139.5 23q59 0 106 -16t77 -50t41 -87t-5 -129l-64 -313q-12 -63 0 -106.5t35 -72.5l-70 -8q-16 16 -27.5 47t-8.5 72h-3q-18 -18 -45.5 -38.5 t-61.5 -39t-70 -30t-70 -11.5q-90 0 -141.5 56.5t-51.5 125.5zM158 709q0 -57 42 -91t101 -34q61 0 124.5 34.5t111.5 73.5l45 228q-121 0 -203 -17.5t-131 -46.5t-69.5 -67.5t-20.5 -79.5z" />
<glyph unicode="&#xab;" horiz-adv-x="1165" d="M61 442l15 74l540 383l-14 -90l-465 -334v-2l350 -364l-34 -54zM586 442l14 74l541 383l-15 -90l-464 -334v-2l350 -364l-35 -54z" />
<glyph unicode="&#xac;" horiz-adv-x="1034" d="M82 377q0 123 39 227.5t106.5 181t159.5 119.5t199 43q86 0 159.5 -33.5t126.5 -89.5l107 121l-160 -801q-8 -41 4.5 -70.5t75.5 -27.5l-8 -63q-84 -4 -115 30.5t-31 91.5h-4q-53 -59 -127.5 -92.5t-169.5 -33.5q-76 0 -141 28.5t-114.5 80.5t-78 126t-28.5 162zM166 393 q0 -78 21.5 -141.5t59.5 -108.5t90 -69.5t116 -24.5q86 0 161.5 37t128.5 90l115 584q-47 51 -124 85t-154 34q-88 0 -164 -40t-131.5 -106.5t-87 -155t-31.5 -184.5z" />
<glyph unicode="&#xad;" horiz-adv-x="561" d="M74 459v78h420v-78h-420z" />
<glyph unicode="&#xae;" horiz-adv-x="1497" d="M123 637q0 139 52 261t143.5 213t213 144.5t261.5 53.5q139 0 261 -53.5t213 -144.5t143 -213t52 -261q0 -137 -52 -260t-143 -213t-213 -143.5t-261 -53.5t-261 53.5t-213.5 143.5t-143.5 213t-52 260zM180 639q0 -125 48 -237.5t131 -195.5t195 -132t239 -49t239.5 49 t195.5 132t131 195.5t48 237.5q0 127 -48 238.5t-131 195.5t-195.5 133t-239.5 49t-239 -49t-195 -133t-131 -195.5t-48 -238.5zM567 283v725h205q139 0 207 -58.5t68 -161.5q0 -80 -42 -131t-108 -75l188 -299h-92l-174 280l-174 -10v-270h-78zM643 621l133 6 q92 4 143.5 45t51.5 112q0 154 -205 154h-123v-317z" />
<glyph unicode="&#xaf;" horiz-adv-x="819" d="M295 1092l20 77h469l-8 -77h-481z" />
<glyph unicode="&#xb0;" horiz-adv-x="686" d="M186 1012q0 59 22.5 112.5t61.5 94.5t91.5 64.5t113.5 23.5q104 0 176 -61.5t72 -172.5q0 -61 -22.5 -114.5t-61.5 -93.5t-92 -63.5t-115 -23.5q-104 0 -175 62.5t-71 171.5zM250 1018q0 -84 54 -131t136 -47q47 0 87 18.5t69 49t46 71.5t17 86q0 86 -54 133t-136 47 q-45 0 -86 -18.5t-69.5 -49t-46 -71.5t-17.5 -88z" />
<glyph unicode="&#xb1;" horiz-adv-x="1497" d="M123 637q0 139 52 261t143.5 213t213 144.5t261.5 53.5q139 0 261 -53.5t213 -144.5t143 -213t52 -261q0 -137 -52 -260t-143 -213t-213 -143.5t-261 -53.5t-261 53.5t-213.5 143.5t-143.5 213t-52 260zM180 639q0 -125 48 -237.5t131 -195.5t195 -132t239 -49t239.5 49 t195.5 132t131 195.5t48 237.5q0 127 -48 238.5t-131 195.5t-195.5 133t-239.5 49t-239 -49t-195 -133t-131 -195.5t-48 -238.5zM602 262v725h201q143 0 212.5 -62.5t69.5 -164.5q0 -121 -78.5 -181.5t-215.5 -60.5h-111v-256h-78zM680 588h117q211 0 211 170 q0 78 -53.5 119t-153.5 41h-121v-330z" />
<glyph unicode="&#xb4;" horiz-adv-x="817" d="M393 1055l340 362h125l-395 -362h-70z" />
<glyph unicode="&#xb5;" horiz-adv-x="1034" d="M31 -397l37 75q47 -31 116.5 -61.5t161.5 -30.5q133 0 222 81t128 276l31 145q-47 -41 -117.5 -74.5t-165.5 -33.5q-76 0 -141 28.5t-114.5 80.5t-78 126t-28.5 162q0 123 39 227.5t106.5 181t159.5 119.5t199 43q86 0 159.5 -33.5t126.5 -89.5l107 121l-201 -1018 q-43 -221 -154.5 -318t-279.5 -97q-104 0 -180 29.5t-133 60.5zM166 393q0 -78 21.5 -141.5t59.5 -108.5t90 -69.5t116 -24.5q86 0 161.5 35t128.5 82l115 594q-47 51 -124 85t-154 34q-88 0 -164 -40t-131.5 -106.5t-87 -155t-31.5 -184.5z" />
<glyph unicode="&#xb6;" horiz-adv-x="1032" d="M170 864q0 104 42 182t111.5 129.5t159.5 77t185 25.5h329l-276 -1409h-82l131 663q-10 -2 -30.5 -4t-41 -3t-36.5 -1h-17q-111 0 -199 25.5t-149 71t-94 108t-33 135.5z" />
<glyph unicode="&#xb7;" horiz-adv-x="313" d="M94 469q0 29 19.5 51.5t52.5 22.5t53.5 -22.5t20.5 -51.5q0 -31 -20.5 -54.5t-53.5 -23.5t-52.5 23.5t-19.5 54.5z" />
<glyph unicode="&#xb8;" horiz-adv-x="819" d="M129 -518l2 63q137 -4 211 36t74 112t-77 96.5t-196 11.5v33l258 207h82l-213 -174q92 -4 157 -45t65 -121q0 -45 -25 -85t-71 -70.5t-113.5 -48t-153.5 -15.5z" />
<glyph unicode="&#xba;" horiz-adv-x="874" d="M150 854q0 88 30.5 168t84.5 141.5t130 97t166 35.5q74 0 136.5 -24.5t107.5 -69.5t69.5 -107.5t24.5 -136.5q0 -88 -30.5 -167.5t-86 -141t-132.5 -97.5t-167 -36q-74 0 -135 25.5t-105 69.5t-68.5 106.5t-24.5 136.5zM217 858q0 -123 74 -203t201 -80q78 0 139 33 t106 87.5t68.5 122.5t23.5 140q0 61 -18 112.5t-54 88.5t-86 58.5t-112 21.5q-78 0 -141.5 -31.5t-107.5 -85t-68.5 -122t-24.5 -142.5z" />
<glyph unicode="&#xbb;" horiz-adv-x="1165" d="M27 57l14 90l465 334v2l-350 365l34 53l392 -387l-15 -74zM551 57l14 90l465 334v2l-350 365l35 53l391 -387l-14 -74z" />
<glyph unicode="&#xbc;" horiz-adv-x="1134" d="M76 0l166 854l-127 8l6 51l133 17l39 180q18 82 46 138.5t64.5 91t80.5 50t94 15.5q51 0 99 -15.5t85 -43.5l-35 -72q-33 23 -71 38t-85 15q-78 0 -125 -59.5t-69 -161.5l-37 -178h481l43 202q18 82 46 138.5t65 91.5t81 50t93 15q51 0 99 -15t85 -44l-35 -72 q-33 23 -70.5 38.5t-84.5 15.5q-78 0 -125 -59.5t-70 -162.5l-41 -198h277l-6 -74h-285l-166 -854h-84l166 854h-483l-166 -854h-84z" />
<glyph unicode="&#xbd;" horiz-adv-x="1531" d="M76 0l166 854l-127 8l6 51l133 17l39 180q18 82 46 138.5t64.5 91t80.5 50t94 15.5q51 0 99 -15.5t85 -43.5l-35 -72q-33 23 -71 38t-85 15q-78 0 -125 -59.5t-69 -161.5l-37 -178h481l43 202q18 82 46 138.5t65 91.5t81 50t93 15q51 0 99 -15t85 -44l-35 -72 q-33 23 -70.5 38.5t-84.5 15.5q-78 0 -125 -59.5t-70 -162.5l-41 -198h473l88 30l-184 -958h-84l166 854h-473l-166 -854h-84l166 854h-483l-166 -854h-84z" />
<glyph unicode="&#xbe;" horiz-adv-x="1519" d="M76 0l166 854l-127 8l6 51l133 17l39 180q18 82 46 138.5t64.5 91t80.5 50t94 15.5q51 0 99 -15.5t85 -43.5l-35 -72q-33 23 -71 38t-85 15q-78 0 -125 -59.5t-69 -161.5l-37 -178h481l43 202q18 82 46 138.5t65 91.5t81 50t93 15q51 0 99 -15t85 -44l-35 -72 q-33 23 -70.5 38.5t-84.5 15.5q-78 0 -125 -59.5t-70 -162.5l-41 -198h277l-6 -74h-285l-166 -854h-84l166 854h-483l-166 -854h-84zM1196 0l268 1380l90 27l-274 -1407h-84z" />
<glyph unicode="&#xbf;" horiz-adv-x="700" d="M57 291q0 68 22.5 116t59.5 82.5t87 59t106 43.5q106 35 151 69.5t45 88.5q0 41 -28.5 78.5t-75.5 78.5l29 8q6 2 11 2.5t9 2.5q6 2 10 2q45 -35 83 -80t38 -103q0 -78 -62.5 -128t-174.5 -87q-111 -37 -169.5 -87t-58.5 -146q0 -57 21.5 -102.5t58.5 -76t86 -47 t105 -16.5q41 0 66.5 2t45.5 6l-14 -77q-20 -4 -46 -6.5t-56 -2.5q-84 0 -150 28t-110 73t-66.5 102.5t-22.5 116.5zM483 1223q0 31 20.5 54t53.5 23t52.5 -23.5t19.5 -53.5q0 -29 -19.5 -51.5t-52.5 -22.5t-53.5 22.5t-20.5 51.5z" />
<glyph unicode="&#xc0;" horiz-adv-x="1179" d="M-39 0l737 1280h107l233 -1280h-82l-67 379h-621l-213 -379h-94zM313 457h559l-131 745zM465 1759h113l196 -362h-57z" />
<glyph unicode="&#xc1;" horiz-adv-x="1179" d="M-39 0l737 1280h107l233 -1280h-82l-67 379h-621l-213 -379h-94zM313 457h559l-131 745zM721 1397l340 362h125l-395 -362h-70z" />
<glyph unicode="&#xc2;" horiz-adv-x="1179" d="M-39 0l737 1280h107l233 -1280h-82l-67 379h-621l-213 -379h-94zM313 457h559l-131 745zM473 1397l301 362h103l157 -362h-61l-154 295h-4l-268 -295h-74z" />
<glyph unicode="&#xc3;" horiz-adv-x="1179" d="M-39 0l737 1280h107l233 -1280h-82l-67 379h-621l-213 -379h-94zM313 457h559l-131 745zM467 1417q66 213 197 213q41 0 79.5 -23.5t74.5 -52t68 -52t58 -23.5q33 0 59.5 26.5t65.5 114.5h59q-66 -213 -196 -213q-41 0 -79 23.5t-74 52t-67.5 52.5t-60.5 24 q-16 0 -30.5 -6.5t-30 -21.5t-30.5 -43t-36 -71h-57z" />
<glyph unicode="&#xc4;" horiz-adv-x="1179" d="M-39 0l737 1280h107l233 -1280h-82l-67 379h-621l-213 -379h-94zM313 457h559l-131 745zM541 1569q0 29 18.5 50t50.5 21q33 0 52.5 -21t19.5 -50t-19.5 -52.5t-52.5 -23.5t-51 23.5t-18 52.5zM909 1569q0 29 20.5 50t53.5 21q31 0 50.5 -21t19.5 -50t-19.5 -52.5 t-50.5 -23.5q-33 0 -53.5 23.5t-20.5 52.5z" />
<glyph unicode="&#xc5;" horiz-adv-x="1179" d="M-39 0l713 1237q-59 25 -92 73t-33 107q0 82 61.5 141.5t167.5 59.5t168 -59.5t62 -141.5q0 -74 -50.5 -130t-142.5 -66l223 -1221h-82l-67 379h-621l-213 -379h-94zM313 457h559l-131 747zM621 1419q0 -57 43 -99t114 -42q72 0 115 39t43 96t-43 101.5t-115 44.5 t-114.5 -41t-42.5 -99z" />
<glyph unicode="&#xc6;" horiz-adv-x="1644" d="M-76 0l987 1280h789l-14 -78h-648l-100 -522h541l-17 -78h-540l-103 -524h647l-14 -78h-733l74 379h-484l-293 -379h-92zM369 457h438l147 753z" />
<glyph unicode="&#xc7;" horiz-adv-x="1169" d="M115 532q0 145 47 283.5t137 246t222 173t300 65.5q100 0 199.5 -21.5t189.5 -61.5l-16 -82q-37 16 -82 32.5t-94 28.5t-100.5 19.5t-100.5 7.5q-147 0 -263 -59.5t-193.5 -156t-118.5 -218t-41 -248.5q0 -117 34.5 -207t98 -151.5t152.5 -93.5t198 -32q80 0 159 19.5 t150 54.5l17 -80q-74 -35 -163 -53t-171 -18h-10l-138 -113q92 -4 157 -45t65 -121q0 -45 -25 -85t-71 -70.5t-113.5 -48t-153.5 -15.5l2 63q137 -4 211 36t74 112t-77 96.5t-196 11.5v33l187 150q-223 27 -348 173t-125 375z" />
<glyph unicode="&#xc8;" horiz-adv-x="1003" d="M78 0l250 1280h733l-17 -78h-647l-100 -524h541l-15 -76h-540l-103 -524h647l-16 -78h-733zM408 1759h112l197 -362h-58z" />
<glyph unicode="&#xc9;" horiz-adv-x="1003" d="M78 0l250 1280h733l-17 -78h-647l-100 -524h541l-15 -76h-540l-103 -524h647l-16 -78h-733zM623 1397l340 362h124l-395 -362h-69z" />
<glyph unicode="&#xca;" horiz-adv-x="1003" d="M78 0l250 1280h733l-17 -78h-647l-100 -524h541l-15 -76h-540l-103 -524h647l-16 -78h-733zM426 1397l301 362h102l158 -362h-61l-154 295h-4l-268 -295h-74z" />
<glyph unicode="&#xcb;" horiz-adv-x="1003" d="M78 0l250 1280h733l-17 -78h-647l-100 -524h541l-15 -76h-540l-103 -524h647l-16 -78h-733zM455 1569q0 29 18.5 50t50.5 21q33 0 52.5 -21t19.5 -50t-19.5 -52.5t-52.5 -23.5t-51 23.5t-18 52.5zM823 1569q0 29 20.5 50t53.5 21q31 0 50.5 -21t19.5 -50t-19.5 -52.5 t-50.5 -23.5q-33 0 -53.5 23.5t-20.5 52.5z" />
<glyph unicode="&#xcc;" horiz-adv-x="425" d="M76 0l250 1280h86l-250 -1280h-86zM104 1759h113l197 -362h-58z" />
<glyph unicode="&#xcd;" horiz-adv-x="425" d="M76 0l250 1280h86l-250 -1280h-86zM350 1397l340 362h125l-395 -362h-70z" />
<glyph unicode="&#xce;" horiz-adv-x="425" d="M76 0l250 1280h86l-250 -1280h-86zM94 1397l301 362h103l157 -362h-61l-154 295h-4l-268 -295h-74z" />
<glyph unicode="&#xcf;" horiz-adv-x="425" d="M76 0l250 1280h86l-250 -1280h-86zM162 1569q0 29 18.5 50t50.5 21q33 0 52.5 -21t19.5 -50t-19.5 -52.5t-52.5 -23.5t-51 23.5t-18 52.5zM530 1569q0 29 20.5 50t53.5 21q31 0 50.5 -21t19.5 -50t-19.5 -52.5t-50.5 -23.5q-33 0 -53.5 23.5t-20.5 52.5z" />
<glyph unicode="&#xd0;" horiz-adv-x="1292" d="M66 604v76h184l117 600h241q129 0 239.5 -36t191.5 -105.5t127 -171t46 -234.5q0 -152 -50 -285t-148.5 -233t-242.5 -157.5t-333 -57.5h-319l117 604h-170zM221 78h225q141 0 264.5 40t214.5 120.5t143 200.5t52 280q0 115 -36.5 205t-105.5 151.5t-167 94t-219 32.5 h-154l-100 -522h379v-76h-393z" />
<glyph unicode="&#xd1;" horiz-adv-x="1284" d="M78 0l248 1280h100l547 -1180l227 1180h82l-252 -1292h-94l-551 1190l-225 -1178h-82zM516 1417q66 213 197 213q41 0 79.5 -23.5t74.5 -52t68 -52t58 -23.5q33 0 59.5 26.5t65.5 114.5h60q-66 -213 -197 -213q-41 0 -79 23.5t-73.5 52t-67.5 52.5t-61 24 q-16 0 -30.5 -6.5t-29.5 -21.5t-30.5 -43t-36.5 -71h-57z" />
<glyph unicode="&#xd2;" d="M121 561q0 147 52 280.5t144.5 236t220.5 162.5t279 60q123 0 226.5 -44t178 -120.5t115.5 -182t41 -228.5q0 -145 -52 -280.5t-145.5 -239t-220 -164.5t-278.5 -61q-123 0 -226.5 44t-178 121.5t-115.5 184t-41 231.5zM207 561q0 -106 34.5 -198.5t98 -161t154 -107.5 t198.5 -39q133 0 242.5 57.5t189.5 151.5t124 214t44 245q0 109 -35.5 201t-100 159.5t-154 105.5t-197.5 38q-133 0 -242.5 -56.5t-188.5 -150.5t-123 -213t-44 -246zM551 1759h113l196 -362h-57z" />
<glyph unicode="&#xd3;" d="M121 561q0 147 52 280.5t144.5 236t220.5 162.5t279 60q123 0 226.5 -44t178 -120.5t115.5 -182t41 -228.5q0 -145 -52 -280.5t-145.5 -239t-220 -164.5t-278.5 -61q-123 0 -226.5 44t-178 121.5t-115.5 184t-41 231.5zM207 561q0 -106 34.5 -198.5t98 -161t154 -107.5 t198.5 -39q133 0 242.5 57.5t189.5 151.5t124 214t44 245q0 109 -35.5 201t-100 159.5t-154 105.5t-197.5 38q-133 0 -242.5 -56.5t-188.5 -150.5t-123 -213t-44 -246zM799 1397l340 362h125l-396 -362h-69z" />
<glyph unicode="&#xd4;" d="M121 561q0 147 52 280.5t144.5 236t220.5 162.5t279 60q123 0 226.5 -44t178 -120.5t115.5 -182t41 -228.5q0 -145 -52 -280.5t-145.5 -239t-220 -164.5t-278.5 -61q-123 0 -226.5 44t-178 121.5t-115.5 184t-41 231.5zM207 561q0 -106 34.5 -198.5t98 -161t154 -107.5 t198.5 -39q133 0 242.5 57.5t189.5 151.5t124 214t44 245q0 109 -35.5 201t-100 159.5t-154 105.5t-197.5 38q-133 0 -242.5 -56.5t-188.5 -150.5t-123 -213t-44 -246zM571 1397l301 362h103l158 -362h-62l-153 295h-5l-268 -295h-74z" />
<glyph unicode="&#xd5;" d="M121 561q0 147 52 280.5t144.5 236t220.5 162.5t279 60q123 0 226.5 -44t178 -120.5t115.5 -182t41 -228.5q0 -145 -52 -280.5t-145.5 -239t-220 -164.5t-278.5 -61q-123 0 -226.5 44t-178 121.5t-115.5 184t-41 231.5zM207 561q0 -106 34.5 -198.5t98 -161t154 -107.5 t198.5 -39q133 0 242.5 57.5t189.5 151.5t124 214t44 245q0 109 -35.5 201t-100 159.5t-154 105.5t-197.5 38q-133 0 -242.5 -56.5t-188.5 -150.5t-123 -213t-44 -246zM545 1417q66 213 196 213q41 0 80 -23.5t75 -52t67.5 -52t58.5 -23.5q33 0 59.5 26.5t65.5 114.5h59 q-66 -213 -196 -213q-41 0 -79 23.5t-74 52t-67.5 52.5t-60.5 24q-16 0 -30.5 -6.5t-30 -21.5t-30.5 -43t-36 -71h-57z" />
<glyph unicode="&#xd6;" d="M121 561q0 147 52 280.5t144.5 236t220.5 162.5t279 60q123 0 226.5 -44t178 -120.5t115.5 -182t41 -228.5q0 -145 -52 -280.5t-145.5 -239t-220 -164.5t-278.5 -61q-123 0 -226.5 44t-178 121.5t-115.5 184t-41 231.5zM207 561q0 -106 34.5 -198.5t98 -161t154 -107.5 t198.5 -39q133 0 242.5 57.5t189.5 151.5t124 214t44 245q0 109 -35.5 201t-100 159.5t-154 105.5t-197.5 38q-133 0 -242.5 -56.5t-188.5 -150.5t-123 -213t-44 -246zM674 1569q0 29 18.5 50t50.5 21q33 0 52.5 -21t19.5 -50t-19.5 -52.5t-52.5 -23.5t-51 23.5t-18 52.5z M1042 1569q0 29 20.5 50t53.5 21q31 0 50.5 -21t19.5 -50t-19.5 -52.5t-50.5 -23.5q-33 0 -53.5 23.5t-20.5 52.5z" />
<glyph unicode="&#xd7;" horiz-adv-x="999" d="M78 109l368 368l-368 369l53 53l369 -369l372 373l54 -53l-373 -373l369 -368l-54 -54l-368 369l-369 -369z" />
<glyph unicode="&#xd8;" d="M106 -137l199 256q-86 78 -135 190.5t-49 247.5q0 147 51 281.5t143.5 237t219.5 163.5t278 61q190 0 330 -98l166 215h84l-197 -256q86 -78 134 -188.5t48 -243.5q0 -145 -51 -280.5t-143 -240t-219 -166.5t-279 -62q-96 0 -178 25.5t-152 72.5q2 0 -24.5 -34t-57.5 -75 q-37 -47 -84 -106h-84zM207 561q0 -115 39 -211t110 -164l738 953q-59 41 -132 64.5t-157 23.5q-133 0 -242.5 -56.5t-188.5 -150.5t-123 -213t-44 -246zM408 143q59 -41 129.5 -64.5t154.5 -23.5q133 0 242.5 57.5t189.5 151.5t124 214t44 245q0 113 -39 209t-108 164z" />
<glyph unicode="&#xd9;" horiz-adv-x="1200" d="M127 334q0 59 9 117.5t16 91.5l145 737h84l-145 -748q-6 -31 -15.5 -80t-9.5 -108q0 -127 91 -208t276 -81q158 0 261 105.5t140 292.5l160 827h84l-162 -844q-41 -211 -164 -333.5t-326 -122.5q-102 0 -185 26.5t-140.5 73.5t-88 112.5t-30.5 141.5zM485 1759h113 l197 -362h-58z" />
<glyph unicode="&#xda;" horiz-adv-x="1200" d="M127 334q0 59 9 117.5t16 91.5l145 737h84l-145 -748q-6 -31 -15.5 -80t-9.5 -108q0 -127 91 -208t276 -81q158 0 261 105.5t140 292.5l160 827h84l-162 -844q-41 -211 -164 -333.5t-326 -122.5q-102 0 -185 26.5t-140.5 73.5t-88 112.5t-30.5 141.5zM696 1397l340 362 h125l-395 -362h-70z" />
<glyph unicode="&#xdb;" horiz-adv-x="1200" d="M127 334q0 59 9 117.5t16 91.5l145 737h84l-145 -748q-6 -31 -15.5 -80t-9.5 -108q0 -127 91 -208t276 -81q158 0 261 105.5t140 292.5l160 827h84l-162 -844q-41 -211 -164 -333.5t-326 -122.5q-102 0 -185 26.5t-140.5 73.5t-88 112.5t-30.5 141.5zM487 1397l301 362 h103l158 -362h-62l-153 295h-5l-268 -295h-74z" />
<glyph unicode="&#xdc;" horiz-adv-x="1200" d="M127 334q0 59 9 117.5t16 91.5l145 737h84l-145 -748q-6 -31 -15.5 -80t-9.5 -108q0 -127 91 -208t276 -81q158 0 261 105.5t140 292.5l160 827h84l-162 -844q-41 -211 -164 -333.5t-326 -122.5q-102 0 -185 26.5t-140.5 73.5t-88 112.5t-30.5 141.5zM545 1569 q0 29 18.5 50t50.5 21q33 0 52.5 -21t19.5 -50t-19.5 -52.5t-52.5 -23.5t-51 23.5t-18 52.5zM913 1569q0 29 20.5 50t53.5 21q31 0 50.5 -21t19.5 -50t-19.5 -52.5t-50.5 -23.5q-33 0 -53.5 23.5t-20.5 52.5z" />
<glyph unicode="&#xdd;" horiz-adv-x="1038" d="M186 1280h88l269 -680l520 680h104l-594 -764l-100 -516h-86l100 520zM606 1397l340 362h125l-395 -362h-70z" />
<glyph unicode="&#xde;" horiz-adv-x="1024" d="M76 0l250 1280h86l-45 -231h202q104 0 183 -28t130.5 -75t77 -109.5t25.5 -134.5q0 -217 -153.5 -339.5t-442.5 -118.5l-178 2l-49 -246h-86zM225 322l178 -3q238 -4 365 95.5t127 273.5q0 59 -21.5 110.5t-64.5 90.5t-105.5 60.5t-146.5 21.5h-205z" />
<glyph unicode="&#xdf;" horiz-adv-x="1181" d="M76 0l166 850l-127 8l6 55l133 17l43 200q18 82 46 138.5t64.5 91.5t80.5 50t94 15q51 0 99 -15t85 -44l-35 -72q-33 23 -70.5 38.5t-85.5 15.5q-78 0 -125 -59.5t-69 -162.5l-221 -1126h-84zM428 92l37 70q53 -43 127 -76t153 -33q102 0 172 51.5t70 139.5q0 31 -9 55.5 t-32.5 47t-63.5 48t-104 56.5q-49 25 -90 49t-69.5 53t-44 65.5t-15.5 86.5q0 59 24.5 106t66.5 80t96.5 50t111.5 17q86 0 163 -27.5t134 -68.5l-37 -69q-57 41 -123.5 67.5t-140.5 26.5q-94 0 -154.5 -47t-60.5 -125q0 -35 10 -60.5t34 -49t63.5 -47t99.5 -52.5 q115 -55 169 -109.5t54 -142.5q0 -57 -24.5 -107.5t-67.5 -87t-103.5 -58t-132.5 -21.5q-92 0 -179 34.5t-134 77.5z" />
<glyph unicode="&#xe0;" horiz-adv-x="874" d="M33 233q0 162 153.5 238t485.5 76l12 59q27 123 -29.5 200t-187.5 77q-76 0 -149.5 -27t-131.5 -61l-18 73q59 35 138 62.5t167 27.5q74 0 135.5 -21.5t102.5 -64.5t57 -109.5t-2 -156.5l-92 -461q-8 -41 4 -70.5t76 -27.5l-9 -63q-84 -4 -115.5 30.5t-31.5 100.5h-2 q-53 -59 -131 -97t-164 -38q-59 0 -108.5 21.5t-85 57t-55 80.5t-19.5 94zM117 242q0 -74 52 -131.5t150 -57.5q80 0 154 40t127 100l59 284q-150 0 -253 -16.5t-167.5 -47t-93 -74.5t-28.5 -97zM254 1417h113l196 -362h-57z" />
<glyph unicode="&#xe1;" horiz-adv-x="874" d="M33 233q0 162 153.5 238t485.5 76l12 59q27 123 -29.5 200t-187.5 77q-76 0 -149.5 -27t-131.5 -61l-18 73q59 35 138 62.5t167 27.5q74 0 135.5 -21.5t102.5 -64.5t57 -109.5t-2 -156.5l-92 -461q-8 -41 4 -70.5t76 -27.5l-9 -63q-84 -4 -115.5 30.5t-31.5 100.5h-2 q-53 -59 -131 -97t-164 -38q-59 0 -108.5 21.5t-85 57t-55 80.5t-19.5 94zM117 242q0 -74 52 -131.5t150 -57.5q80 0 154 40t127 100l59 284q-150 0 -253 -16.5t-167.5 -47t-93 -74.5t-28.5 -97zM428 1055l340 362h125l-395 -362h-70z" />
<glyph unicode="&#xe2;" horiz-adv-x="874" d="M33 233q0 162 153.5 238t485.5 76l12 59q27 123 -29.5 200t-187.5 77q-76 0 -149.5 -27t-131.5 -61l-18 73q59 35 138 62.5t167 27.5q74 0 135.5 -21.5t102.5 -64.5t57 -109.5t-2 -156.5l-92 -461q-8 -41 4 -70.5t76 -27.5l-9 -63q-84 -4 -115.5 30.5t-31.5 100.5h-2 q-53 -59 -131 -97t-164 -38q-59 0 -108.5 21.5t-85 57t-55 80.5t-19.5 94zM117 242q0 -74 52 -131.5t150 -57.5q80 0 154 40t127 100l59 284q-150 0 -253 -16.5t-167.5 -47t-93 -74.5t-28.5 -97zM250 1055l301 362h102l158 -362h-61l-154 295h-4l-268 -295h-74z" />
<glyph unicode="&#xe3;" horiz-adv-x="874" d="M33 233q0 162 153.5 238t485.5 76l12 59q27 123 -29.5 200t-187.5 77q-76 0 -149.5 -27t-131.5 -61l-18 73q59 35 138 62.5t167 27.5q74 0 135.5 -21.5t102.5 -64.5t57 -109.5t-2 -156.5l-92 -461q-8 -41 4 -70.5t76 -27.5l-9 -63q-84 -4 -115.5 30.5t-31.5 100.5h-2 q-53 -59 -131 -97t-164 -38q-59 0 -108.5 21.5t-85 57t-55 80.5t-19.5 94zM117 242q0 -74 52 -131.5t150 -57.5q80 0 154 40t127 100l59 284q-150 0 -253 -16.5t-167.5 -47t-93 -74.5t-28.5 -97zM223 1075q66 213 197 213q41 0 80 -23.5t74.5 -52t67.5 -52t58 -23.5 q33 0 59.5 26.5t65.5 114.5h60q-66 -213 -197 -213q-41 0 -79 23.5t-73.5 52t-67.5 52.5t-60 24q-16 0 -31 -6.5t-30 -21.5t-30.5 -43t-35.5 -71h-58z" />
<glyph unicode="&#xe4;" horiz-adv-x="874" d="M33 233q0 162 153.5 238t485.5 76l12 59q27 123 -29.5 200t-187.5 77q-76 0 -149.5 -27t-131.5 -61l-18 73q59 35 138 62.5t167 27.5q74 0 135.5 -21.5t102.5 -64.5t57 -109.5t-2 -156.5l-92 -461q-8 -41 4 -70.5t76 -27.5l-9 -63q-84 -4 -115.5 30.5t-31.5 100.5h-2 q-53 -59 -131 -97t-164 -38q-59 0 -108.5 21.5t-85 57t-55 80.5t-19.5 94zM117 242q0 -74 52 -131.5t150 -57.5q80 0 154 40t127 100l59 284q-150 0 -253 -16.5t-167.5 -47t-93 -74.5t-28.5 -97zM319 1227q0 29 18.5 50t51.5 21t52.5 -21t19.5 -50t-19.5 -52.5t-52.5 -23.5 t-51.5 23.5t-18.5 52.5zM688 1227q0 29 20.5 50t53.5 21q31 0 50 -21t19 -50t-19 -52.5t-50 -23.5q-33 0 -53.5 23.5t-20.5 52.5z" />
<glyph unicode="&#xe5;" horiz-adv-x="874" d="M33 233q0 162 153.5 238t485.5 76l12 59q27 123 -29.5 200t-187.5 77q-76 0 -149.5 -27t-131.5 -61l-18 73q59 35 138 62.5t167 27.5q74 0 135.5 -21.5t102.5 -64.5t57 -109.5t-2 -156.5l-92 -461q-8 -41 4 -70.5t76 -27.5l-9 -63q-84 -4 -115.5 30.5t-31.5 100.5h-2 q-53 -59 -131 -97t-164 -38q-59 0 -108.5 21.5t-85 57t-55 80.5t-19.5 94zM117 242q0 -74 52 -131.5t150 -57.5q80 0 154 40t127 100l59 284q-150 0 -253 -16.5t-167.5 -47t-93 -74.5t-28.5 -97zM338 1237q0 82 61.5 141.5t167.5 59.5t168 -59.5t62 -141.5t-61.5 -140.5 t-168.5 -58.5q-106 0 -167.5 58.5t-61.5 140.5zM410 1239q0 -57 43 -99t114 -42q72 0 115 39t43 96t-43 101t-115 44t-114.5 -41t-42.5 -98z" />
<glyph unicode="&#xe6;" horiz-adv-x="1511" d="M33 223q0 162 155.5 242t483.5 70l14 71q25 123 -24.5 200t-180.5 77q-76 0 -152.5 -27t-133.5 -61l-19 73q59 35 141 62.5t170 27.5q111 0 187 -49t92 -153q66 92 159 147t208 55q70 0 128 -21.5t100 -59t65.5 -90t23.5 -111.5q0 -43 -11.5 -92t-31.5 -95l-655 -4 q-2 -18 -3 -35.5t-1 -35.5q0 -76 22.5 -141.5t63 -113.5t102 -75t137.5 -27q61 0 121.5 16.5t112.5 41.5l6 -78q-51 -25 -115.5 -41t-128.5 -16q-135 0 -231.5 65.5t-143.5 175.5q-90 -131 -193.5 -186t-197.5 -55q-59 0 -109.5 20t-86 54t-55 78t-19.5 91zM117 231 q0 -74 53 -124t152 -50q72 0 166 51.5t186 176.5q-12 45 -14 89t2 91q-154 4 -258.5 -12.5t-168 -47t-91 -75.5t-27.5 -99zM766 559h573q20 53 21 113q0 86 -61.5 147.5t-172.5 61.5q-66 0 -124 -26t-104 -70t-80 -102t-52 -124z" />
<glyph unicode="&#xe7;" horiz-adv-x="911" d="M86 403q0 104 36 204t102.5 178.5t158.5 125.5t205 47q96 0 174 -30.5t133 -77.5l-35 -72q-49 41 -122.5 72t-159.5 31q-82 0 -155 -38t-128 -102.5t-87 -149.5t-32 -177q0 -76 21.5 -141.5t62.5 -113.5t101.5 -75t136.5 -27q61 0 121.5 16.5t111.5 41.5l6 -78 q-51 -25 -115.5 -41t-127.5 -16h-7l-137 -113q92 -4 156.5 -45t64.5 -121q0 -45 -24.5 -85t-70.5 -70.5t-113.5 -48t-153.5 -15.5l2 63q137 -4 211 36t74 112t-77 96.5t-196 11.5v33q53 41 94 76q35 29 66 52.5t29 23.5q-74 12 -134.5 49t-102.5 92t-65.5 126t-23.5 150z " />
<glyph unicode="&#xe8;" horiz-adv-x="942" d="M90 403q0 109 36 209.5t98.5 177t149.5 122.5t189 46q70 0 128.5 -21.5t100.5 -59t65.5 -90t23.5 -111.5q0 -43 -11.5 -92t-31.5 -95l-656 -4q-2 -18 -3 -35.5t-1 -35.5q0 -76 22.5 -141.5t63.5 -113.5t102.5 -75t137.5 -27q61 0 121.5 16.5t111.5 41.5l6 -78 q-51 -25 -115.5 -41t-127.5 -16q-92 0 -167 31.5t-129 89t-84 134t-30 168.5zM197 559h573q20 53 21 113q0 86 -61.5 147.5t-172.5 61.5q-66 0 -124 -26t-104 -70t-80 -102t-52 -124zM315 1417h113l197 -362h-58z" />
<glyph unicode="&#xe9;" horiz-adv-x="942" d="M90 403q0 109 36 209.5t98.5 177t149.5 122.5t189 46q70 0 128.5 -21.5t100.5 -59t65.5 -90t23.5 -111.5q0 -43 -11.5 -92t-31.5 -95l-656 -4q-2 -18 -3 -35.5t-1 -35.5q0 -76 22.5 -141.5t63.5 -113.5t102.5 -75t137.5 -27q61 0 121.5 16.5t111.5 41.5l6 -78 q-51 -25 -115.5 -41t-127.5 -16q-92 0 -167 31.5t-129 89t-84 134t-30 168.5zM197 559h573q20 53 21 113q0 86 -61.5 147.5t-172.5 61.5q-66 0 -124 -26t-104 -70t-80 -102t-52 -124zM489 1055l340 362h125l-395 -362h-70z" />
<glyph unicode="&#xea;" horiz-adv-x="942" d="M90 403q0 109 36 209.5t98.5 177t149.5 122.5t189 46q70 0 128.5 -21.5t100.5 -59t65.5 -90t23.5 -111.5q0 -43 -11.5 -92t-31.5 -95l-656 -4q-2 -18 -3 -35.5t-1 -35.5q0 -76 22.5 -141.5t63.5 -113.5t102.5 -75t137.5 -27q61 0 121.5 16.5t111.5 41.5l6 -78 q-51 -25 -115.5 -41t-127.5 -16q-92 0 -167 31.5t-129 89t-84 134t-30 168.5zM197 559h573q20 53 21 113q0 86 -61.5 147.5t-172.5 61.5q-66 0 -124 -26t-104 -70t-80 -102t-52 -124zM289 1055l301 362h102l158 -362h-62l-153 295h-4l-269 -295h-73z" />
<glyph unicode="&#xeb;" horiz-adv-x="942" d="M90 403q0 109 36 209.5t98.5 177t149.5 122.5t189 46q70 0 128.5 -21.5t100.5 -59t65.5 -90t23.5 -111.5q0 -43 -11.5 -92t-31.5 -95l-656 -4q-2 -18 -3 -35.5t-1 -35.5q0 -76 22.5 -141.5t63.5 -113.5t102.5 -75t137.5 -27q61 0 121.5 16.5t111.5 41.5l6 -78 q-51 -25 -115.5 -41t-127.5 -16q-92 0 -167 31.5t-129 89t-84 134t-30 168.5zM197 559h573q20 53 21 113q0 86 -61.5 147.5t-172.5 61.5q-66 0 -124 -26t-104 -70t-80 -102t-52 -124zM369 1227q0 29 18.5 50t50.5 21q33 0 52.5 -21t19.5 -50t-19.5 -52.5t-52.5 -23.5 t-51 23.5t-18 52.5zM737 1227q0 29 20.5 50t53.5 21q31 0 50.5 -21t19.5 -50t-19.5 -52.5t-50.5 -23.5q-33 0 -53.5 23.5t-20.5 52.5z" />
<glyph unicode="&#xec;" horiz-adv-x="397" d="M27 1417h112l197 -362h-57zM66 0l180 932l88 26l-184 -958h-84z" />
<glyph unicode="&#xed;" horiz-adv-x="397" d="M66 0l180 932l88 26l-184 -958h-84zM260 1055l340 362h125l-395 -362h-70z" />
<glyph unicode="&#xee;" horiz-adv-x="397" d="M33 1055l301 362h102l158 -362h-62l-153 295h-4l-269 -295h-73zM66 0l180 932l88 26l-184 -958h-84z" />
<glyph unicode="&#xef;" horiz-adv-x="397" d="M66 0l180 932l88 26l-184 -958h-84zM94 1227q0 29 18.5 50t51.5 21t52.5 -21t19.5 -50t-19.5 -52.5t-52.5 -23.5t-51.5 23.5t-18.5 52.5zM463 1227q0 29 20.5 50t53.5 21q31 0 50 -21t19 -50t-19.5 -52.5t-49.5 -23.5q-33 0 -53.5 23.5t-20.5 52.5z" />
<glyph unicode="&#xf0;" horiz-adv-x="1054" d="M80 387q0 100 37 190.5t101.5 159t153.5 108.5t195 40q84 0 164 -29t146 -78h4q-27 104 -77 200.5t-112 186.5q0 2 -40 -9t-89 -26q-57 -16 -131 -34l-18 73l229 62q-37 49 -77 93t-81 85l95 16q41 -37 78.5 -79.5t72.5 -90.5l221 60l19 -74l-193 -51 q92 -137 152.5 -293.5t60.5 -316.5q0 -106 -33.5 -212t-98 -189t-158 -135t-214.5 -52q-86 0 -160.5 26.5t-130 77.5t-86 124t-30.5 167zM168 395q0 -154 89 -243t235 -89q102 0 179 45.5t129 117t78.5 163.5t26.5 186q0 27 -2 53.5t-6 53.5q-66 59 -155 93t-175 34 q-90 0 -163.5 -33t-126 -90t-81 -132t-28.5 -159z" />
<glyph unicode="&#xf1;" horiz-adv-x="1007" d="M61 0l181 932l90 26l-27 -139q78 63 163 101t171 38q123 0 193.5 -68.5t70.5 -184.5q0 -23 -4 -56t-12 -74l-113 -575h-84l113 582q14 72 14 108q0 88 -50 141.5t-155 53.5q-78 0 -157.5 -42t-165.5 -108l-144 -735h-84zM311 1075q66 213 197 213q41 0 80 -23.5t74.5 -52 t67.5 -52t58 -23.5q33 0 59.5 26.5t65.5 114.5h60q-66 -213 -197 -213q-41 0 -79 23.5t-73.5 52t-67.5 52.5t-60 24q-16 0 -30.5 -6.5t-30 -21.5t-31 -43t-35.5 -71h-58z" />
<glyph unicode="&#xf2;" horiz-adv-x="1089" d="M86 403q0 111 38 210.5t105.5 176t162.5 121.5t208 45q92 0 167 -31.5t127 -88t81 -134.5t29 -170q0 -111 -38 -210t-105.5 -174.5t-162 -120.5t-209.5 -45q-92 0 -166.5 31.5t-127 87t-81 133t-28.5 169.5zM172 408q0 -76 21.5 -140.5t63.5 -111.5t102.5 -74t136.5 -27 q96 0 174 39t133 104.5t85 150.5t30 175q0 76 -22 141.5t-62.5 113.5t-101 76t-138.5 28q-96 0 -174 -41t-133.5 -107.5t-85 -151.5t-29.5 -175zM348 1417h113l196 -362h-57z" />
<glyph unicode="&#xf3;" horiz-adv-x="1089" d="M86 403q0 111 38 210.5t105.5 176t162.5 121.5t208 45q92 0 167 -31.5t127 -88t81 -134.5t29 -170q0 -111 -38 -210t-105.5 -174.5t-162 -120.5t-209.5 -45q-92 0 -166.5 31.5t-127 87t-81 133t-28.5 169.5zM172 408q0 -76 21.5 -140.5t63.5 -111.5t102.5 -74t136.5 -27 q96 0 174 39t133 104.5t85 150.5t30 175q0 76 -22 141.5t-62.5 113.5t-101 76t-138.5 28q-96 0 -174 -41t-133.5 -107.5t-85 -151.5t-29.5 -175zM571 1055l340 362h125l-395 -362h-70z" />
<glyph unicode="&#xf4;" horiz-adv-x="1089" d="M86 403q0 111 38 210.5t105.5 176t162.5 121.5t208 45q92 0 167 -31.5t127 -88t81 -134.5t29 -170q0 -111 -38 -210t-105.5 -174.5t-162 -120.5t-209.5 -45q-92 0 -166.5 31.5t-127 87t-81 133t-28.5 169.5zM172 408q0 -76 21.5 -140.5t63.5 -111.5t102.5 -74t136.5 -27 q96 0 174 39t133 104.5t85 150.5t30 175q0 76 -22 141.5t-62.5 113.5t-101 76t-138.5 28q-96 0 -174 -41t-133.5 -107.5t-85 -151.5t-29.5 -175zM379 1055l301 362h102l158 -362h-61l-154 295h-4l-268 -295h-74z" />
<glyph unicode="&#xf5;" horiz-adv-x="1089" d="M86 403q0 111 38 210.5t105.5 176t162.5 121.5t208 45q92 0 167 -31.5t127 -88t81 -134.5t29 -170q0 -111 -38 -210t-105.5 -174.5t-162 -120.5t-209.5 -45q-92 0 -166.5 31.5t-127 87t-81 133t-28.5 169.5zM172 408q0 -76 21.5 -140.5t63.5 -111.5t102.5 -74t136.5 -27 q96 0 174 39t133 104.5t85 150.5t30 175q0 76 -22 141.5t-62.5 113.5t-101 76t-138.5 28q-96 0 -174 -41t-133.5 -107.5t-85 -151.5t-29.5 -175zM352 1075q66 213 197 213q41 0 80 -23.5t74.5 -52t67.5 -52t58 -23.5q33 0 59.5 26.5t65.5 114.5h60q-66 -213 -197 -213 q-41 0 -79 23.5t-73.5 52t-67.5 52.5t-60 24q-16 0 -30.5 -6.5t-30 -21.5t-31 -43t-35.5 -71h-58z" />
<glyph unicode="&#xf6;" horiz-adv-x="1089" d="M86 403q0 111 38 210.5t105.5 176t162.5 121.5t208 45q92 0 167 -31.5t127 -88t81 -134.5t29 -170q0 -111 -38 -210t-105.5 -174.5t-162 -120.5t-209.5 -45q-92 0 -166.5 31.5t-127 87t-81 133t-28.5 169.5zM172 408q0 -76 21.5 -140.5t63.5 -111.5t102.5 -74t136.5 -27 q96 0 174 39t133 104.5t85 150.5t30 175q0 76 -22 141.5t-62.5 113.5t-101 76t-138.5 28q-96 0 -174 -41t-133.5 -107.5t-85 -151.5t-29.5 -175zM451 1227q0 29 18 50t51 21t52.5 -21t19.5 -50t-19.5 -52.5t-52.5 -23.5t-51 23.5t-18 52.5zM819 1227q0 29 20.5 50t53.5 21 q31 0 50.5 -21t19.5 -50t-19.5 -52.5t-50.5 -23.5q-33 0 -53.5 23.5t-20.5 52.5z" />
<glyph unicode="&#xf7;" horiz-adv-x="999" d="M86 444l6 74h817l6 -74h-829zM430 219q0 29 19.5 51.5t52.5 22.5t53 -22.5t20 -51.5q0 -31 -20 -54.5t-53 -23.5t-52.5 23.5t-19.5 54.5zM430 739q0 29 19.5 51.5t52.5 22.5t53 -22.5t20 -51.5q0 -31 -20 -54t-53 -23t-52.5 23.5t-19.5 53.5z" />
<glyph unicode="&#xf8;" horiz-adv-x="1089" d="M39 -137l170 221q-61 55 -96 136t-35 179q0 111 39 211.5t107.5 177t164.5 122.5t209 46q133 0 236 -63l141 184h84q-49 -63 -86 -112q-33 -41 -59.5 -76t-26.5 -37q61 -55 96 -136t35 -179q0 -111 -39 -211.5t-107.5 -177t-164 -121.5t-209.5 -45q-133 0 -236 63 l-139 -182h-84zM164 403q0 -78 24.5 -142t71.5 -111l524 679q-41 25 -88 39.5t-104 14.5q-96 0 -175 -41t-135.5 -108.5t-87 -153.5t-30.5 -177zM311 109q82 -53 193 -54q96 0 175 40t135 106.5t87 151.5t31 175q0 78 -24.5 144.5t-71.5 113.5z" />
<glyph unicode="&#xf9;" horiz-adv-x="1007" d="M106 233q0 23 4.5 56t12.5 73l113 576h83l-112 -582q-14 -72 -14 -108q0 -88 50 -141.5t154 -53.5q78 0 158 40t166 106l143 739h84l-180 -932l-90 -26l27 139q-78 -63 -163 -101t-171 -38q-123 0 -194 68.5t-71 184.5zM330 1417h112l197 -362h-57z" />
<glyph unicode="&#xfa;" horiz-adv-x="1007" d="M106 233q0 23 4.5 56t12.5 73l113 576h83l-112 -582q-14 -72 -14 -108q0 -88 50 -141.5t154 -53.5q78 0 158 40t166 106l143 739h84l-180 -932l-90 -26l27 139q-78 -63 -163 -101t-171 -38q-123 0 -194 68.5t-71 184.5zM551 1055l340 362h125l-395 -362h-70z" />
<glyph unicode="&#xfb;" horiz-adv-x="1007" d="M106 233q0 23 4.5 56t12.5 73l113 576h83l-112 -582q-14 -72 -14 -108q0 -88 50 -141.5t154 -53.5q78 0 158 40t166 106l143 739h84l-180 -932l-90 -26l27 139q-78 -63 -163 -101t-171 -38q-123 0 -194 68.5t-71 184.5zM322 1055l301 362h102l158 -362h-62l-153 295h-4 l-269 -295h-73z" />
<glyph unicode="&#xfc;" horiz-adv-x="1007" d="M106 233q0 23 4.5 56t12.5 73l113 576h83l-112 -582q-14 -72 -14 -108q0 -88 50 -141.5t154 -53.5q78 0 158 40t166 106l143 739h84l-180 -932l-90 -26l27 139q-78 -63 -163 -101t-171 -38q-123 0 -194 68.5t-71 184.5zM373 1227q0 29 18.5 50t50.5 21q33 0 52.5 -21 t19.5 -50t-19.5 -52.5t-52.5 -23.5t-51 23.5t-18 52.5zM741 1227q0 29 20.5 50t53.5 21q31 0 50.5 -21t19.5 -50t-19.5 -52.5t-50.5 -23.5q-33 0 -53.5 23.5t-20.5 52.5z" />
<glyph unicode="&#xfd;" horiz-adv-x="829" d="M-209 -422l45 68q23 -16 45.5 -27.5t57.5 -11.5q18 0 39.5 7t49 29.5t61.5 63.5t75 111l117 202l-179 918h86l154 -823l475 823h94l-565 -956l-121 -205q-45 -78 -85 -126t-74.5 -76t-67.5 -37t-64 -9q-47 0 -80.5 14.5t-62.5 34.5zM446 1055l340 362h125l-395 -362h-70z " />
<glyph unicode="&#xfe;" horiz-adv-x="1040" d="M-31 -477l361 1857l90 27l-111 -567q47 41 118 74.5t165 33.5q76 0 141.5 -28.5t114.5 -81t77.5 -125t28.5 -162.5q0 -123 -37.5 -227.5t-105.5 -181t-160 -119.5t-200 -43q-86 0 -160 33.5t-127 88.5l-113 -579h-82zM178 168q47 -51 124 -85t155 -34q88 0 163.5 40 t131 106.5t87 154.5t31.5 185q0 78 -21.5 141t-59 108t-90 70t-115.5 25q-86 0 -162 -35t-129 -82z" />
<glyph unicode="&#xff;" horiz-adv-x="829" d="M-209 -422l45 68q23 -16 45.5 -27.5t57.5 -11.5q18 0 39.5 7t49 29.5t61.5 63.5t75 111l117 202l-179 918h86l154 -823l475 823h94l-565 -956l-121 -205q-45 -78 -85 -126t-74.5 -76t-67.5 -37t-64 -9q-47 0 -80.5 14.5t-62.5 34.5zM305 1227q0 29 18.5 50t51.5 21 t52 -21t19 -50t-19 -52.5t-52 -23.5t-51.5 23.5t-18.5 52.5zM674 1227q0 29 20.5 50t53.5 21q31 0 50 -21t19 -50t-19.5 -52.5t-49.5 -23.5q-33 0 -53.5 23.5t-20.5 52.5z" />
<glyph unicode="&#x152;" horiz-adv-x="1837" d="M152 555q0 152 50 284t148.5 230t242.5 154.5t333 56.5h966l-14 -78h-647l-101 -522h541l-16 -78h-541l-102 -524h647l-14 -78h-889q-129 0 -239.5 37t-191.5 108.5t-127 175t-46 234.5zM244 561q0 -115 36.5 -205t105.5 -151.5t167 -94t219 -32.5h154l217 1124h-225 q-141 0 -264.5 -40t-214.5 -120.5t-143 -200.5t-52 -280z" />
<glyph unicode="&#x153;" horiz-adv-x="1763" d="M86 403q0 111 38 210.5t105.5 176t162.5 121.5t208 45q145 0 242.5 -73.5t136.5 -196.5q59 121 164.5 196.5t240.5 75.5q70 0 128.5 -21.5t100.5 -59t65.5 -90t23.5 -111.5q0 -43 -11.5 -92t-31.5 -95l-655 -4q-2 -18 -3.5 -35.5t-1.5 -35.5q0 -76 22.5 -141.5 t63.5 -113.5t102.5 -75t137.5 -27q61 0 121.5 16.5t112.5 41.5l6 -78q-51 -25 -116 -41t-128 -16q-143 0 -244.5 75.5t-142.5 200.5q-63 -123 -178 -198.5t-267 -75.5q-92 0 -166.5 31.5t-127 87t-81 133t-28.5 169.5zM172 408q0 -76 21.5 -140.5t63.5 -111.5t102.5 -74 t136.5 -27q96 0 174 39t133 104.5t85 150.5t30 175q0 76 -22 141.5t-62.5 113.5t-101 76t-138.5 28q-96 0 -174 -41t-133.5 -107.5t-85 -151.5t-29.5 -175zM1018 559h573q20 53 21 113q0 86 -61.5 147.5t-172.5 61.5q-66 0 -124 -26t-104 -70t-80 -102t-52 -124z" />
<glyph unicode="&#x178;" horiz-adv-x="1038" d="M186 1280h88l269 -680l520 680h104l-594 -764l-100 -516h-86l100 520zM440 1569q0 29 18.5 50t51.5 21t52.5 -21t19.5 -50t-19.5 -52.5t-52.5 -23.5t-51.5 23.5t-18.5 52.5zM809 1569q0 29 20.5 50t53.5 21q31 0 50 -21t19 -50t-19.5 -52.5t-49.5 -23.5q-33 0 -53.5 23.5 t-20.5 52.5z" />
<glyph unicode="&#x2c6;" horiz-adv-x="819" d="M244 1055l301 362h102l158 -362h-62l-153 295h-4l-269 -295h-73z" />
<glyph unicode="&#x2dc;" horiz-adv-x="819" d="M217 1075q66 213 197 213q41 0 79.5 -23.5t74.5 -52t68 -52t58 -23.5q33 0 59.5 26.5t65.5 114.5h60q-66 -213 -197 -213q-41 0 -79 23.5t-73.5 52t-67.5 52.5t-61 24q-16 0 -30.5 -6.5t-29.5 -21.5t-30.5 -43t-36.5 -71h-57z" />
<glyph unicode="&#x2000;" horiz-adv-x="879" />
<glyph unicode="&#x2001;" horiz-adv-x="1759" />
<glyph unicode="&#x2002;" horiz-adv-x="879" />
<glyph unicode="&#x2003;" horiz-adv-x="1759" />
<glyph unicode="&#x2004;" horiz-adv-x="586" />
<glyph unicode="&#x2005;" horiz-adv-x="439" />
<glyph unicode="&#x2006;" horiz-adv-x="293" />
<glyph unicode="&#x2007;" horiz-adv-x="293" />
<glyph unicode="&#x2008;" horiz-adv-x="219" />
<glyph unicode="&#x2009;" horiz-adv-x="351" />
<glyph unicode="&#x200a;" horiz-adv-x="97" />
<glyph unicode="&#x2010;" horiz-adv-x="561" d="M74 459v78h420v-78h-420z" />
<glyph unicode="&#x2011;" horiz-adv-x="561" d="M74 459v78h420v-78h-420z" />
<glyph unicode="&#x2012;" horiz-adv-x="561" d="M74 459v78h420v-78h-420z" />
<glyph unicode="&#x2013;" horiz-adv-x="876" d="M66 459l6 78h735l6 -78h-747z" />
<glyph unicode="&#x2014;" horiz-adv-x="1839" d="M66 459l6 78h1697l7 -78h-1710z" />
<glyph unicode="&#x2018;" horiz-adv-x="313" d="M152 1004q0 47 22.5 92t59 85t86 72.5t100.5 57.5l31 -37q-104 -57 -150.5 -115.5t-46.5 -114.5q0 -55 92 -90q-6 -27 -31.5 -49t-60.5 -22q-43 0 -72.5 36.5t-29.5 84.5z" />
<glyph unicode="&#x2019;" horiz-adv-x="313" d="M113 938q104 57 150 115.5t46 113.5t-92 90q6 27 31.5 49.5t60.5 22.5q43 0 73 -37t30 -84t-22.5 -92t-59.5 -85t-85 -72.5t-102 -57.5z" />
<glyph unicode="&#x201a;" horiz-adv-x="313" d="M-117 -252q104 57 150.5 115.5t46.5 113.5q0 56 -92 91q6 27 31.5 49t60.5 22q43 0 72.5 -36.5t29.5 -84.5q0 -47 -22.5 -92t-59.5 -85t-86 -72.5t-100 -57.5z" />
<glyph unicode="&#x201c;" horiz-adv-x="681" d="M152 1004q0 47 22.5 92t59 85t86 72.5t100.5 57.5l31 -37q-104 -57 -150.5 -115.5t-46.5 -114.5q0 -55 92 -90q-6 -27 -31.5 -49t-60.5 -22q-43 0 -72.5 36.5t-29.5 84.5zM520 1004q0 47 22.5 92t59.5 85t86 72.5t100 57.5l31 -37q-104 -57 -150 -115.5t-46 -114.5 q0 -55 92 -90q-6 -27 -32 -49t-60 -22q-43 0 -73 36.5t-30 84.5z" />
<glyph unicode="&#x201d;" horiz-adv-x="681" d="M113 938q104 57 150 115.5t46 113.5t-92 90q6 27 31.5 49.5t60.5 22.5q43 0 73 -37t30 -84t-22.5 -92t-59.5 -85t-85 -72.5t-102 -57.5zM481 938q104 57 150.5 115.5t46.5 113.5t-92 90q6 27 31.5 49.5t60.5 22.5q43 0 72.5 -37t29.5 -84t-22.5 -92t-59 -85t-85 -72.5 t-101.5 -57.5z" />
<glyph unicode="&#x201e;" horiz-adv-x="681" d="M-115 -252q104 57 150.5 115.5t46.5 113.5q0 56 -92 91q6 27 31.5 49t60.5 22q43 0 72.5 -36.5t29.5 -84.5q0 -47 -22.5 -92t-59 -85t-86 -72.5t-100.5 -57.5zM254 -252q104 57 150.5 115.5t46.5 113.5q-1 56 -93 91q6 27 32 49t61 22q43 0 72.5 -36.5t29.5 -84.5 q0 -47 -22.5 -92t-59.5 -85t-85 -72.5t-101 -57.5z" />
<glyph unicode="&#x2022;" horiz-adv-x="931" d="M72 475q0 23 12 63t30.5 83t39 80.5t34.5 52.5q16 16 53.5 35.5t80.5 37t83.5 29.5t61.5 12q23 0 62.5 -12t82.5 -30.5t81 -38t52 -33.5q16 -14 36 -52t37.5 -81t29.5 -83t12 -63t-12 -62.5t-29.5 -82.5t-37 -81t-36.5 -54q-14 -14 -52 -35t-81 -38.5t-84 -29.5t-63 -12 q-20 0 -61.5 12t-84.5 29.5t-79.5 38t-51.5 35.5q-14 16 -34.5 53t-39 80t-30.5 84t-12 63z" />
<glyph unicode="&#x2026;" horiz-adv-x="940" d="M8 57q0 29 19.5 51.5t52.5 22.5t53.5 -22.5t20.5 -51.5q0 -31 -20.5 -54t-53.5 -23t-52.5 23.5t-19.5 53.5zM322 57q0 29 19 51.5t52 22.5t53.5 -22.5t20.5 -51.5q0 -31 -20.5 -54t-53.5 -23t-52 23.5t-19 53.5zM635 57q0 29 19.5 51.5t52.5 22.5t53 -22.5t20 -51.5 q0 -31 -20.5 -54t-52.5 -23q-33 0 -52.5 23.5t-19.5 53.5z" />
<glyph unicode="&#x202f;" horiz-adv-x="351" />
<glyph unicode="&#x2039;" horiz-adv-x="641" d="M61 442l15 74l540 383l-14 -90l-465 -338v-2l350 -360l-34 -54z" />
<glyph unicode="&#x203a;" horiz-adv-x="641" d="M29 53l14 90l465 334v2l-350 365l35 53l391 -387l-15 -74z" />
<glyph unicode="&#x205f;" horiz-adv-x="439" />
<glyph unicode="&#x20ac;" horiz-adv-x="1036" d="M76 444l6 72h139q4 39 10.5 81t14.5 87q4 23 9 43.5t9 40.5h-121l-6 72h148q72 217 200.5 337.5t313.5 120.5q90 0 180 -28.5t143 -63.5l-32 -71q-57 39 -138.5 64.5t-156.5 25.5q-301 0 -424 -385h497l-6 -72h-512q-4 -20 -9 -40.5t-9 -43.5q-18 -88 -25 -168h432l6 -72 h-442q-2 -195 87 -294t282 -99q59 0 111.5 9.5t99.5 25.5l-2 -74q-47 -16 -99.5 -24t-115.5 -11q-229 0 -339 119t-108 348h-143z" />
<glyph unicode="&#x2122;" horiz-adv-x="1775" d="M199 1214v66h649v-66h-289v-700h-70v700h-290zM961 514l47 766h106l242 -696h6l264 696h103l45 -766h-68l-39 678h-6l-262 -678h-88l-238 678h-6l-37 -678h-69z" />
<glyph unicode="&#x25fc;" horiz-adv-x="942" d="M0 0v942h942v-942h-942z" />
<glyph unicode="&#xfb01;" horiz-adv-x="964" d="M76 0l166 854l-127 8l6 51l133 17l43 200q18 82 46 138.5t64.5 91.5t80.5 50t94 15q51 0 99 -15t85 -44l-35 -72q-33 23 -70.5 38.5t-85.5 15.5q-78 0 -125 -59.5t-69 -162.5l-41 -198h473l88 30l-184 -958h-84l166 854h-473l-166 -854h-84z" />
<glyph unicode="&#xfb02;" horiz-adv-x="952" d="M76 0l166 854l-127 8l6 51l133 17l43 200q18 82 46 138.5t64.5 91.5t80.5 50t94 15q51 0 99 -15t85 -44l-35 -72q-33 23 -70.5 38.5t-85.5 15.5q-78 0 -125 -59.5t-69 -162.5l-41 -198h276l7 -74h-297l-166 -854h-84zM629 0l268 1380l90 27l-274 -1407h-84z" />
<glyph unicode="&#xfb03;" horiz-adv-x="1531" d="M76 0l166 854l-127 8l6 51l133 17l39 180q18 82 46 138.5t64.5 91t80.5 50t94 15.5q51 0 99 -15.5t85 -43.5l-35 -72q-33 23 -71 38t-85 15q-78 0 -125 -59.5t-69 -161.5l-37 -178h481l43 202q18 82 46 138.5t65 91.5t81 50t93 15q51 0 99 -15t85 -44l-35 -72 q-33 23 -70.5 38.5t-84.5 15.5q-78 0 -125 -59.5t-70 -162.5l-41 -198h473l88 30l-184 -958h-84l166 854h-473l-166 -854h-84l166 854h-483l-166 -854h-84z" />
<glyph unicode="&#xfb04;" horiz-adv-x="1519" d="M76 0l166 854l-127 8l6 51l133 17l39 180q18 82 46 138.5t64.5 91t80.5 50t94 15.5q51 0 99 -15.5t85 -43.5l-35 -72q-33 23 -71 38t-85 15q-78 0 -125 -59.5t-69 -161.5l-37 -178h481l43 202q18 82 46 138.5t65 91.5t81 50t93 15q51 0 99 -15t85 -44l-35 -72 q-33 23 -70.5 38.5t-84.5 15.5q-78 0 -125 -59.5t-70 -162.5l-41 -198h277l-6 -74h-285l-166 -854h-84l166 854h-483l-166 -854h-84zM1196 0l268 1380l90 27l-274 -1407h-84z" />
</font>
</defs>
</svg>
